<?xml version="1.0" encoding="iso-8859-1"?>
<!-- Generator: Adobe Illustrator 19.0.0, SVG Export Plug-In . SVG Version: 6.00 Build 0)  -->
<svg version="1.1" id="Capa_1" xmlns="http://www.w3.org/2000/svg" xmlns:xlink="http://www.w3.org/1999/xlink" x="0px" y="0px"
	 viewBox="0 0 511.999 511.999" style="enable-background:new 0 0 511.999 511.999;" xml:space="preserve">
<g>
	<path style="fill:#1DE8F1;" d="M492.177,102.686C424.371,55.882,342.761,30.98,256.657,30.98h-1.501
		c-85.808,0.3-167.516,25.203-235.324,71.707c-10.497,7.501-17.701,18.902-19.499,31.503c-1.501,12.3,2.098,24.903,10.2,34.504
		c15.301,18.001,42.305,21.601,61.504,8.1c52.505-36.302,116.214-55.504,183.119-55.805h1.501
		c67.206,0,130.808,19.202,183.313,55.805c19.506,13.501,46.505,9.902,61.507-8.1C518.58,148.59,514.379,117.988,492.177,102.686z"
		/>
	<path style="fill:#1DE8F1;" d="M402.169,195.994c-42.906-29.402-93.609-45.004-147.014-45.004s-105.109,15.602-147.714,45.004
		C85.84,210.695,82.24,241.298,98.142,261.4c14.1,18.003,39.302,21.901,58.203,9.001c28.201-19.201,64.009-28.802,98.809-28.802
		s69.608,9.601,97.809,28.802c19.202,12.901,44.103,9.002,58.504-9.001C427.37,240.998,423.169,210.395,402.169,195.994z"/>
	<path style="fill:#1DE8F1;" d="M325.66,286.903c-21.301-10.502-45.901-15.602-70.505-15.602s-50.205,5.099-71.506,15.602
		c-15.902,7.501-24.901,23.701-24.901,40.203c0,9.902,3.296,20.101,10.196,28.503c13.203,16.201,36.705,21.303,54.706,12.3
		c9.303-4.499,20.404-6.9,31.504-6.9c11.101,0,22.202,2.401,31.504,6.9c18.001,9.002,40.503,3.9,53.706-12.3
		C358.663,333.108,351.463,299.203,325.66,286.903z"/>
	<path style="fill:#1DE8F1;" d="M255.155,391.012c-24.904,0-46.004,20.101-46.004,45.004s21.1,45.004,46.004,45.004
		s45.004-20.101,45.004-45.004S280.06,391.012,255.155,391.012z"/>
</g>
<g>
	<path style="fill:#1BD9DE;" d="M300.159,436.016c0,24.903-20.1,45.004-45.004,45.004v-90.008
		C280.06,391.012,300.159,411.114,300.159,436.016z"/>
	<path style="fill:#1BD9DE;" d="M340.365,355.61c-13.203,16.201-35.705,21.303-53.706,12.3c-9.303-4.499-20.404-6.9-31.504-6.9
		v-89.708c24.604,0,49.205,5.099,70.505,15.602C351.463,299.203,358.663,333.108,340.365,355.61z"/>
	<path style="fill:#1BD9DE;" d="M411.468,261.4c-14.4,18.003-39.302,21.901-58.504,9.001
		c-28.201-19.201-63.009-28.802-97.809-28.802V150.99c53.406,0,104.109,15.602,147.014,45.004
		C423.169,210.395,427.37,240.998,411.468,261.4z"/>
	<path style="fill:#1BD9DE;" d="M501.476,168.693c-15.001,18.001-42.001,21.601-61.507,8.1
		c-52.505-36.602-116.107-55.805-183.313-55.805h-1.501V30.979h1.501c86.104,0,167.714,24.903,235.521,71.707
		C514.379,117.988,518.58,148.59,501.476,168.693z"/>
</g>
<g>
</g>
<g>
</g>
<g>
</g>
<g>
</g>
<g>
</g>
<g>
</g>
<g>
</g>
<g>
</g>
<g>
</g>
<g>
</g>
<g>
</g>
<g>
</g>
<g>
</g>
<g>
</g>
<g>
</g>
</svg>
