<?xml version="1.0" encoding="UTF-8" standalone="no"?>
<!DOCTYPE svg PUBLIC "-//W3C//DTD SVG 1.1//EN"
 "http://www.w3.org/Graphics/SVG/1.1/DTD/svg11.dtd">
<!-- Generated by graphviz version 2.47.0 (20210316.0004)
 -->
<!-- Title: dependencies Pages: 1 -->
<svg width="1194pt" height="211pt"
 viewBox="0.00 0.00 1194.00 211.00" xmlns="http://www.w3.org/2000/svg" xmlns:xlink="http://www.w3.org/1999/xlink">
<g id="graph0" class="graph" transform="scale(1 1) rotate(0) translate(4 207)">
<title>dependencies</title>
<polygon fill="white" stroke="transparent" points="-4,4 -4,-207 1190,-207 1190,4 -4,4"/>
<text text-anchor="start" x="572.01" y="-42.4" font-family="sans-serif" font-weight="bold" font-size="14.00">Legend</text>
<polygon fill="#ffffb3" stroke="transparent" points="359,-10 359,-30 379,-30 379,-10 359,-10"/>
<text text-anchor="start" x="382.63" y="-15.4" font-family="sans-serif" font-size="14.00"> &#160;Declarations</text>
<polygon fill="#8dd3c7" stroke="transparent" points="472,-10 472,-30 492,-30 492,-10 472,-10"/>
<text text-anchor="start" x="495.73" y="-15.4" font-family="sans-serif" font-size="14.00"> &#160;Module</text>
<polygon fill="#80b1d3" stroke="transparent" points="558,-10 558,-30 578,-30 578,-10 558,-10"/>
<text text-anchor="start" x="581.78" y="-15.4" font-family="sans-serif" font-size="14.00"> &#160;Bootstrap</text>
<polygon fill="#fdb462" stroke="transparent" points="655,-10 655,-30 675,-30 675,-10 655,-10"/>
<text text-anchor="start" x="678.67" y="-15.4" font-family="sans-serif" font-size="14.00"> &#160;Providers</text>
<polygon fill="#fb8072" stroke="transparent" points="751,-10 751,-30 771,-30 771,-10 751,-10"/>
<text text-anchor="start" x="774.73" y="-15.4" font-family="sans-serif" font-size="14.00"> &#160;Exports</text>
<g id="clust1" class="cluster">
<title>cluster_AccountsModule</title>
<polygon fill="none" stroke="black" stroke-dasharray="1,5" points="8,-70 8,-195 1178,-195 1178,-70 8,-70"/>
</g>
<g id="clust7" class="cluster">
<title>cluster_AccountsModule_imports</title>
<polygon fill="none" stroke="black" points="730,-78 730,-130 1170,-130 1170,-78 730,-78"/>
</g>
<g id="clust2" class="cluster">
<title>cluster_AccountsModule_declarations</title>
<polygon fill="none" stroke="black" points="16,-78 16,-130 722,-130 722,-78 16,-78"/>
</g>
<!-- AccountDetailsComponent -->
<g id="node1" class="node">
<title>AccountDetailsComponent</title>
<polygon fill="#ffffb3" stroke="black" points="714.41,-122 545.59,-122 545.59,-86 714.41,-86 714.41,-122"/>
<text text-anchor="middle" x="630" y="-99.8" font-family="Times,serif" font-size="14.00">AccountDetailsComponent</text>
</g>
<!-- AccountsModule -->
<g id="node5" class="node">
<title>AccountsModule</title>
<polygon fill="#8dd3c7" stroke="black" points="686.42,-187 683.42,-191 662.42,-191 659.42,-187 573.58,-187 573.58,-151 686.42,-151 686.42,-187"/>
<text text-anchor="middle" x="630" y="-164.8" font-family="Times,serif" font-size="14.00">AccountsModule</text>
</g>
<!-- AccountDetailsComponent&#45;&gt;AccountsModule -->
<g id="edge1" class="edge">
<title>AccountDetailsComponent&#45;&gt;AccountsModule</title>
<path fill="none" stroke="black" d="M630,-122.11C630,-122.11 630,-140.99 630,-140.99"/>
<polygon fill="black" stroke="black" points="626.5,-140.99 630,-150.99 633.5,-140.99 626.5,-140.99"/>
</g>
<!-- AccountSearchComponent -->
<g id="node2" class="node">
<title>AccountSearchComponent</title>
<polygon fill="#ffffb3" stroke="black" points="527.35,-122 360.65,-122 360.65,-86 527.35,-86 527.35,-122"/>
<text text-anchor="middle" x="444" y="-99.8" font-family="Times,serif" font-size="14.00">AccountSearchComponent</text>
</g>
<!-- AccountSearchComponent&#45;&gt;AccountsModule -->
<g id="edge2" class="edge">
<title>AccountSearchComponent&#45;&gt;AccountsModule</title>
<path fill="none" stroke="black" d="M444,-122.03C444,-138.4 444,-160 444,-160 444,-160 563.69,-160 563.69,-160"/>
<polygon fill="black" stroke="black" points="563.69,-163.5 573.69,-160 563.69,-156.5 563.69,-163.5"/>
</g>
<!-- AccountsComponent -->
<g id="node3" class="node">
<title>AccountsComponent</title>
<polygon fill="#ffffb3" stroke="black" points="342.2,-122 207.8,-122 207.8,-86 342.2,-86 342.2,-122"/>
<text text-anchor="middle" x="275" y="-99.8" font-family="Times,serif" font-size="14.00">AccountsComponent</text>
</g>
<!-- AccountsComponent&#45;&gt;AccountsModule -->
<g id="edge3" class="edge">
<title>AccountsComponent&#45;&gt;AccountsModule</title>
<path fill="none" stroke="black" d="M275,-122.11C275,-141.34 275,-169 275,-169 275,-169 563.75,-169 563.75,-169"/>
<polygon fill="black" stroke="black" points="563.75,-172.5 573.75,-169 563.75,-165.5 563.75,-172.5"/>
</g>
<!-- CreateAccountComponent -->
<g id="node4" class="node">
<title>CreateAccountComponent</title>
<polygon fill="#ffffb3" stroke="black" points="189.79,-122 24.21,-122 24.21,-86 189.79,-86 189.79,-122"/>
<text text-anchor="middle" x="107" y="-99.8" font-family="Times,serif" font-size="14.00">CreateAccountComponent</text>
</g>
<!-- CreateAccountComponent&#45;&gt;AccountsModule -->
<g id="edge4" class="edge">
<title>CreateAccountComponent&#45;&gt;AccountsModule</title>
<path fill="none" stroke="black" d="M107,-122.29C107,-144.21 107,-178 107,-178 107,-178 563.53,-178 563.53,-178"/>
<polygon fill="black" stroke="black" points="563.53,-181.5 573.53,-178 563.53,-174.5 563.53,-181.5"/>
</g>
<!-- AccountsRoutingModule -->
<g id="node6" class="node">
<title>AccountsRoutingModule</title>
<polygon fill="#8dd3c7" stroke="black" points="1161.54,-122 1158.54,-126 1137.54,-126 1134.54,-122 1004.46,-122 1004.46,-86 1161.54,-86 1161.54,-122"/>
<text text-anchor="middle" x="1083" y="-99.8" font-family="Times,serif" font-size="14.00">AccountsRoutingModule</text>
</g>
<!-- AccountsRoutingModule&#45;&gt;AccountsModule -->
<g id="edge5" class="edge">
<title>AccountsRoutingModule&#45;&gt;AccountsModule</title>
<path fill="none" stroke="black" d="M1083,-122.29C1083,-144.21 1083,-178 1083,-178 1083,-178 696.46,-178 696.46,-178"/>
<polygon fill="black" stroke="black" points="696.46,-174.5 686.46,-178 696.46,-181.5 696.46,-174.5"/>
</g>
<!-- SharedModule -->
<g id="node7" class="node">
<title>SharedModule</title>
<polygon fill="#8dd3c7" stroke="black" points="986.42,-122 983.42,-126 962.42,-126 959.42,-122 887.58,-122 887.58,-86 986.42,-86 986.42,-122"/>
<text text-anchor="middle" x="937" y="-99.8" font-family="Times,serif" font-size="14.00">SharedModule</text>
</g>
<!-- SharedModule&#45;&gt;AccountsModule -->
<g id="edge6" class="edge">
<title>SharedModule&#45;&gt;AccountsModule</title>
<path fill="none" stroke="black" d="M937,-122.11C937,-141.34 937,-169 937,-169 937,-169 696.31,-169 696.31,-169"/>
<polygon fill="black" stroke="black" points="696.31,-165.5 686.31,-169 696.31,-172.5 696.31,-165.5"/>
</g>
<!-- TransactionsModule -->
<g id="node8" class="node">
<title>TransactionsModule</title>
<polygon fill="#8dd3c7" stroke="black" points="869.58,-122 866.58,-126 845.58,-126 842.58,-122 738.42,-122 738.42,-86 869.58,-86 869.58,-122"/>
<text text-anchor="middle" x="804" y="-99.8" font-family="Times,serif" font-size="14.00">TransactionsModule</text>
</g>
<!-- TransactionsModule&#45;&gt;AccountsModule -->
<g id="edge7" class="edge">
<title>TransactionsModule&#45;&gt;AccountsModule</title>
<path fill="none" stroke="black" d="M804,-122.03C804,-138.4 804,-160 804,-160 804,-160 696.49,-160 696.49,-160"/>
<polygon fill="black" stroke="black" points="696.49,-156.5 686.49,-160 696.49,-163.5 696.49,-156.5"/>
</g>
</g>
</svg>
