<?xml version="1.0" encoding="UTF-8" standalone="no"?>
<!DOCTYPE svg PUBLIC "-//W3C//DTD SVG 1.1//EN"
 "http://www.w3.org/Graphics/SVG/1.1/DTD/svg11.dtd">
<!-- Generated by graphviz version 2.47.0 (20210316.0004)
 -->
<!-- Title: dependencies Pages: 1 -->
<svg width="5072pt" height="363pt"
 viewBox="0.00 0.00 5072.00 363.00" xmlns="http://www.w3.org/2000/svg" xmlns:xlink="http://www.w3.org/1999/xlink">
<g id="graph0" class="graph" transform="scale(1 1) rotate(0) translate(4 359)">
<title>dependencies</title>
<polygon fill="white" stroke="transparent" points="-4,4 -4,-359 5068,-359 5068,4 -4,4"/>
<text text-anchor="start" x="2511.01" y="-42.4" font-family="sans-serif" font-weight="bold" font-size="14.00">Legend</text>
<polygon fill="#ffffb3" stroke="transparent" points="2298,-10 2298,-30 2318,-30 2318,-10 2298,-10"/>
<text text-anchor="start" x="2321.63" y="-15.4" font-family="sans-serif" font-size="14.00"> &#160;Declarations</text>
<polygon fill="#8dd3c7" stroke="transparent" points="2411,-10 2411,-30 2431,-30 2431,-10 2411,-10"/>
<text text-anchor="start" x="2434.73" y="-15.4" font-family="sans-serif" font-size="14.00"> &#160;Module</text>
<polygon fill="#80b1d3" stroke="transparent" points="2497,-10 2497,-30 2517,-30 2517,-10 2497,-10"/>
<text text-anchor="start" x="2520.78" y="-15.4" font-family="sans-serif" font-size="14.00"> &#160;Bootstrap</text>
<polygon fill="#fdb462" stroke="transparent" points="2594,-10 2594,-30 2614,-30 2614,-10 2594,-10"/>
<text text-anchor="start" x="2617.67" y="-15.4" font-family="sans-serif" font-size="14.00"> &#160;Providers</text>
<polygon fill="#fb8072" stroke="transparent" points="2690,-10 2690,-30 2710,-30 2710,-10 2690,-10"/>
<text text-anchor="start" x="2713.73" y="-15.4" font-family="sans-serif" font-size="14.00"> &#160;Exports</text>
<g id="clust1" class="cluster">
<title>cluster_AccountsModule</title>
<polygon fill="none" stroke="black" stroke-dasharray="1,5" points="1148,-146 1148,-339 2167,-339 2167,-146 1148,-146"/>
</g>
<g id="clust2" class="cluster">
<title>cluster_AccountsModule_declarations</title>
<polygon fill="none" stroke="black" points="1454,-222 1454,-274 2159,-274 2159,-222 1454,-222"/>
</g>
<g id="clust7" class="cluster">
<title>cluster_AccountsModule_imports</title>
<polygon fill="none" stroke="black" points="1156,-154 1156,-274 1446,-274 1446,-154 1156,-154"/>
</g>
<g id="clust17" class="cluster">
<title>cluster_AdminModule</title>
<polygon fill="none" stroke="black" stroke-dasharray="1,5" points="8,-146 8,-274 328,-274 328,-146 8,-146"/>
</g>
<g id="clust18" class="cluster">
<title>cluster_AdminModule_declarations</title>
<polygon fill="none" stroke="black" points="184,-154 184,-206 320,-206 320,-154 184,-154"/>
</g>
<g id="clust20" class="cluster">
<title>cluster_AdminModule_imports</title>
<polygon fill="none" stroke="black" points="16,-154 16,-206 176,-206 176,-154 16,-154"/>
</g>
<g id="clust30" class="cluster">
<title>cluster_AppModule</title>
<polygon fill="none" stroke="black" stroke-dasharray="1,5" points="2175,-146 2175,-347 3236,-347 3236,-146 2175,-146"/>
</g>
<g id="clust31" class="cluster">
<title>cluster_AppModule_declarations</title>
<polygon fill="none" stroke="black" points="3106,-154 3106,-206 3228,-206 3228,-154 3106,-154"/>
</g>
<g id="clust33" class="cluster">
<title>cluster_AppModule_imports</title>
<polygon fill="none" stroke="black" points="2954,-154 2954,-206 3098,-206 3098,-154 2954,-154"/>
</g>
<g id="clust35" class="cluster">
<title>cluster_AppModule_bootstrap</title>
<polygon fill="none" stroke="black" points="2577,-287 2577,-339 2701,-339 2701,-287 2577,-287"/>
</g>
<g id="clust36" class="cluster">
<title>cluster_AppModule_providers</title>
<polygon fill="none" stroke="black" points="2183,-154 2183,-206 2946,-206 2946,-154 2183,-154"/>
</g>
<g id="clust43" class="cluster">
<title>cluster_AuthModule</title>
<polygon fill="none" stroke="black" stroke-dasharray="1,5" points="3244,-146 3244,-274 3721,-274 3721,-146 3244,-146"/>
</g>
<g id="clust44" class="cluster">
<title>cluster_AuthModule_declarations</title>
<polygon fill="none" stroke="black" points="3408,-154 3408,-206 3713,-206 3713,-154 3408,-154"/>
</g>
<g id="clust47" class="cluster">
<title>cluster_AuthModule_imports</title>
<polygon fill="none" stroke="black" points="3252,-154 3252,-206 3400,-206 3400,-154 3252,-154"/>
</g>
<g id="clust57" class="cluster">
<title>cluster_PagesModule</title>
<polygon fill="none" stroke="black" stroke-dasharray="1,5" points="3729,-146 3729,-274 4037,-274 4037,-146 3729,-146"/>
</g>
<g id="clust58" class="cluster">
<title>cluster_PagesModule_declarations</title>
<polygon fill="none" stroke="black" points="3899,-154 3899,-206 4029,-206 4029,-154 3899,-154"/>
</g>
<g id="clust60" class="cluster">
<title>cluster_PagesModule_imports</title>
<polygon fill="none" stroke="black" points="3737,-154 3737,-206 3891,-206 3891,-154 3737,-154"/>
</g>
<g id="clust70" class="cluster">
<title>cluster_SettingsModule</title>
<polygon fill="none" stroke="black" stroke-dasharray="1,5" points="4045,-146 4045,-274 4549,-274 4549,-146 4045,-146"/>
</g>
<g id="clust71" class="cluster">
<title>cluster_SettingsModule_declarations</title>
<polygon fill="none" stroke="black" points="4227,-154 4227,-206 4541,-206 4541,-154 4227,-154"/>
</g>
<g id="clust74" class="cluster">
<title>cluster_SettingsModule_imports</title>
<polygon fill="none" stroke="black" points="4053,-154 4053,-206 4219,-206 4219,-154 4053,-154"/>
</g>
<g id="clust84" class="cluster">
<title>cluster_SharedModule</title>
<polygon fill="none" stroke="black" stroke-dasharray="1,5" points="92,-70 92,-138 2652,-138 2652,-70 92,-70"/>
</g>
<g id="clust85" class="cluster">
<title>cluster_SharedModule_declarations</title>
<polygon fill="none" stroke="black" points="1228,-78 1228,-130 2644,-130 2644,-78 1228,-78"/>
</g>
<g id="clust97" class="cluster">
<title>cluster_SharedModule_exports</title>
<polygon fill="none" stroke="black" points="100,-78 100,-130 1220,-130 1220,-78 100,-78"/>
</g>
<g id="clust100" class="cluster">
<title>cluster_TokensModule</title>
<polygon fill="none" stroke="black" stroke-dasharray="1,5" points="4557,-146 4557,-274 5056,-274 5056,-146 4557,-146"/>
</g>
<g id="clust101" class="cluster">
<title>cluster_TokensModule_declarations</title>
<polygon fill="none" stroke="black" points="4735,-154 4735,-206 5048,-206 5048,-154 4735,-154"/>
</g>
<g id="clust104" class="cluster">
<title>cluster_TokensModule_imports</title>
<polygon fill="none" stroke="black" points="4565,-154 4565,-206 4727,-206 4727,-154 4565,-154"/>
</g>
<g id="clust114" class="cluster">
<title>cluster_TransactionsModule</title>
<polygon fill="none" stroke="black" stroke-dasharray="1,5" points="336,-146 336,-214 1140,-214 1140,-146 336,-146"/>
</g>
<g id="clust115" class="cluster">
<title>cluster_TransactionsModule_declarations</title>
<polygon fill="none" stroke="black" points="758,-154 758,-206 1132,-206 1132,-154 758,-154"/>
</g>
<g id="clust118" class="cluster">
<title>cluster_TransactionsModule_imports</title>
<polygon fill="none" stroke="black" points="558,-154 558,-206 750,-206 750,-154 558,-154"/>
</g>
<g id="clust119" class="cluster">
<title>cluster_TransactionsModule_exports</title>
<polygon fill="none" stroke="black" points="344,-154 344,-206 550,-206 550,-154 344,-154"/>
</g>
<!-- AccountDetailsComponent -->
<g id="node1" class="node">
<title>AccountDetailsComponent</title>
<polygon fill="#ffffb3" stroke="black" points="1815.41,-266 1646.59,-266 1646.59,-230 1815.41,-230 1815.41,-266"/>
<text text-anchor="middle" x="1731" y="-243.8" font-family="Times,serif" font-size="14.00">AccountDetailsComponent</text>
</g>
<!-- AccountsModule -->
<g id="node5" class="node">
<title>AccountsModule</title>
<polygon fill="#8dd3c7" stroke="black" points="1601.42,-331 1598.42,-335 1577.42,-335 1574.42,-331 1488.58,-331 1488.58,-295 1601.42,-295 1601.42,-331"/>
<text text-anchor="middle" x="1545" y="-308.8" font-family="Times,serif" font-size="14.00">AccountsModule</text>
</g>
<!-- AccountDetailsComponent&#45;&gt;AccountsModule -->
<g id="edge1" class="edge">
<title>AccountDetailsComponent&#45;&gt;AccountsModule</title>
<path fill="none" stroke="black" d="M1731,-266.03C1731,-282.4 1731,-304 1731,-304 1731,-304 1611.31,-304 1611.31,-304"/>
<polygon fill="black" stroke="black" points="1611.31,-300.5 1601.31,-304 1611.31,-307.5 1611.31,-300.5"/>
</g>
<!-- AccountSearchComponent -->
<g id="node2" class="node">
<title>AccountSearchComponent</title>
<polygon fill="#ffffb3" stroke="black" points="1628.35,-266 1461.65,-266 1461.65,-230 1628.35,-230 1628.35,-266"/>
<text text-anchor="middle" x="1545" y="-243.8" font-family="Times,serif" font-size="14.00">AccountSearchComponent</text>
</g>
<!-- AccountSearchComponent&#45;&gt;AccountsModule -->
<g id="edge2" class="edge">
<title>AccountSearchComponent&#45;&gt;AccountsModule</title>
<path fill="none" stroke="black" d="M1545,-266.11C1545,-266.11 1545,-284.99 1545,-284.99"/>
<polygon fill="black" stroke="black" points="1541.5,-284.99 1545,-294.99 1548.5,-284.99 1541.5,-284.99"/>
</g>
<!-- AccountsComponent -->
<g id="node3" class="node">
<title>AccountsComponent</title>
<polygon fill="#ffffb3" stroke="black" points="2151.2,-266 2016.8,-266 2016.8,-230 2151.2,-230 2151.2,-266"/>
<text text-anchor="middle" x="2084" y="-243.8" font-family="Times,serif" font-size="14.00">AccountsComponent</text>
</g>
<!-- AccountsComponent&#45;&gt;AccountsModule -->
<g id="edge3" class="edge">
<title>AccountsComponent&#45;&gt;AccountsModule</title>
<path fill="none" stroke="black" d="M2084,-266.29C2084,-288.21 2084,-322 2084,-322 2084,-322 1611.41,-322 1611.41,-322"/>
<polygon fill="black" stroke="black" points="1611.41,-318.5 1601.41,-322 1611.41,-325.5 1611.41,-318.5"/>
</g>
<!-- CreateAccountComponent -->
<g id="node4" class="node">
<title>CreateAccountComponent</title>
<polygon fill="#ffffb3" stroke="black" points="1998.79,-266 1833.21,-266 1833.21,-230 1998.79,-230 1998.79,-266"/>
<text text-anchor="middle" x="1916" y="-243.8" font-family="Times,serif" font-size="14.00">CreateAccountComponent</text>
</g>
<!-- CreateAccountComponent&#45;&gt;AccountsModule -->
<g id="edge4" class="edge">
<title>CreateAccountComponent&#45;&gt;AccountsModule</title>
<path fill="none" stroke="black" d="M1916,-266.11C1916,-285.34 1916,-313 1916,-313 1916,-313 1611.35,-313 1611.35,-313"/>
<polygon fill="black" stroke="black" points="1611.35,-309.5 1601.35,-313 1611.35,-316.5 1611.35,-309.5"/>
</g>
<!-- AccountsRoutingModule -->
<g id="node6" class="node">
<title>AccountsRoutingModule</title>
<polygon fill="#8dd3c7" stroke="black" points="1321.54,-198 1318.54,-202 1297.54,-202 1294.54,-198 1164.46,-198 1164.46,-162 1321.54,-162 1321.54,-198"/>
<text text-anchor="middle" x="1243" y="-175.8" font-family="Times,serif" font-size="14.00">AccountsRoutingModule</text>
</g>
<!-- AccountsRoutingModule&#45;&gt;AccountsModule -->
<g id="edge5" class="edge">
<title>AccountsRoutingModule&#45;&gt;AccountsModule</title>
<path fill="none" stroke="black" d="M1308.65,-198.21C1308.65,-234.64 1308.65,-313 1308.65,-313 1308.65,-313 1478.69,-313 1478.69,-313"/>
<polygon fill="black" stroke="black" points="1478.69,-316.5 1488.69,-313 1478.69,-309.5 1478.69,-316.5"/>
</g>
<!-- SharedModule -->
<g id="node7" class="node">
<title>SharedModule</title>
<polygon fill="#8dd3c7" stroke="black" points="1438.42,-198 1435.42,-202 1414.42,-202 1411.42,-198 1339.58,-198 1339.58,-162 1438.42,-162 1438.42,-198"/>
<text text-anchor="middle" x="1389" y="-175.8" font-family="Times,serif" font-size="14.00">SharedModule</text>
</g>
<!-- SharedModule&#45;&gt;AccountsModule -->
<g id="edge6" class="edge">
<title>SharedModule&#45;&gt;AccountsModule</title>
<path fill="none" stroke="black" d="M1425.91,-198.03C1425.91,-232.42 1425.91,-304 1425.91,-304 1425.91,-304 1478.59,-304 1478.59,-304"/>
<polygon fill="black" stroke="black" points="1478.59,-307.5 1488.59,-304 1478.59,-300.5 1478.59,-307.5"/>
</g>
<!-- TransactionsModule -->
<g id="node8" class="node">
<title>TransactionsModule</title>
<polygon fill="#8dd3c7" stroke="black" points="1295.58,-266 1292.58,-270 1271.58,-270 1268.58,-266 1164.42,-266 1164.42,-230 1295.58,-230 1295.58,-266"/>
<text text-anchor="middle" x="1230" y="-243.8" font-family="Times,serif" font-size="14.00">TransactionsModule</text>
</g>
<!-- SharedModule&#45;&gt;TransactionsModule -->
<g id="edge54" class="edge">
<title>SharedModule&#45;&gt;TransactionsModule</title>
<path fill="none" stroke="black" d="M1413.61,-198.22C1413.61,-218.37 1413.61,-248 1413.61,-248 1413.61,-248 1305.77,-248 1305.77,-248"/>
<polygon fill="black" stroke="black" points="1305.77,-244.5 1295.77,-248 1305.77,-251.5 1305.77,-244.5"/>
</g>
<!-- AdminModule -->
<g id="node10" class="node">
<title>AdminModule</title>
<polygon fill="#8dd3c7" stroke="black" points="301.44,-266 298.44,-270 277.44,-270 274.44,-266 202.56,-266 202.56,-230 301.44,-230 301.44,-266"/>
<text text-anchor="middle" x="252" y="-243.8" font-family="Times,serif" font-size="14.00">AdminModule</text>
</g>
<!-- SharedModule&#45;&gt;AdminModule -->
<g id="edge10" class="edge">
<title>SharedModule&#45;&gt;AdminModule</title>
<path fill="none" stroke="black" d="M1352.09,-198.04C1352.09,-210.56 1352.09,-225 1352.09,-225 1352.09,-225 268.41,-225 268.41,-225 268.41,-225 268.41,-225.49 268.41,-225.49"/>
<polygon fill="black" stroke="black" points="264.91,-219.88 268.41,-229.88 271.91,-219.88 264.91,-219.88"/>
</g>
<!-- AppModule -->
<g id="node13" class="node">
<title>AppModule</title>
<polygon fill="#8dd3c7" stroke="black" points="2680.66,-266 2677.66,-270 2656.66,-270 2653.66,-266 2597.34,-266 2597.34,-230 2680.66,-230 2680.66,-266"/>
<text text-anchor="middle" x="2639" y="-243.8" font-family="Times,serif" font-size="14.00">AppModule</text>
</g>
<!-- SharedModule&#45;&gt;AppModule -->
<g id="edge13" class="edge">
<title>SharedModule&#45;&gt;AppModule</title>
<path fill="none" stroke="black" d="M1438.22,-193C1609.81,-193 2171.16,-193 2171.16,-193 2171.16,-193 2171.16,-257 2171.16,-257 2171.16,-257 2587.07,-257 2587.07,-257"/>
<polygon fill="black" stroke="black" points="2587.07,-260.5 2597.07,-257 2587.07,-253.5 2587.07,-260.5"/>
</g>
<!-- AuthModule -->
<g id="node22" class="node">
<title>AuthModule</title>
<polygon fill="#8dd3c7" stroke="black" points="3454.55,-266 3451.55,-270 3430.55,-270 3427.55,-266 3367.45,-266 3367.45,-230 3454.55,-230 3454.55,-266"/>
<text text-anchor="middle" x="3411" y="-243.8" font-family="Times,serif" font-size="14.00">AuthModule</text>
</g>
<!-- SharedModule&#45;&gt;AuthModule -->
<g id="edge22" class="edge">
<title>SharedModule&#45;&gt;AuthModule</title>
<path fill="none" stroke="black" d="M1364.39,-198.13C1364.39,-208.71 1364.39,-220 1364.39,-220 1364.39,-220 3375.6,-220 3375.6,-220 3375.6,-220 3375.6,-220.98 3375.6,-220.98"/>
<polygon fill="black" stroke="black" points="3372.1,-219.79 3375.6,-229.79 3379.1,-219.79 3372.1,-219.79"/>
</g>
<!-- PagesModule -->
<g id="node25" class="node">
<title>PagesModule</title>
<polygon fill="#8dd3c7" stroke="black" points="3860.21,-266 3857.21,-270 3836.21,-270 3833.21,-266 3767.79,-266 3767.79,-230 3860.21,-230 3860.21,-266"/>
<text text-anchor="middle" x="3814" y="-243.8" font-family="Times,serif" font-size="14.00">PagesModule</text>
</g>
<!-- SharedModule&#45;&gt;PagesModule -->
<g id="edge25" class="edge">
<title>SharedModule&#45;&gt;PagesModule</title>
<path fill="none" stroke="black" d="M1376.7,-198.19C1376.7,-206.28 1376.7,-214 1376.7,-214 1376.7,-214 3798.63,-214 3798.63,-214 3798.63,-214 3798.63,-219.81 3798.63,-219.81"/>
<polygon fill="black" stroke="black" points="3795.13,-219.81 3798.63,-229.81 3802.13,-219.81 3795.13,-219.81"/>
</g>
<!-- SettingsModule -->
<g id="node29" class="node">
<title>SettingsModule</title>
<polygon fill="#8dd3c7" stroke="black" points="4269.16,-266 4266.16,-270 4245.16,-270 4242.16,-266 4164.84,-266 4164.84,-230 4269.16,-230 4269.16,-266"/>
<text text-anchor="middle" x="4217" y="-243.8" font-family="Times,serif" font-size="14.00">SettingsModule</text>
</g>
<!-- SharedModule&#45;&gt;SettingsModule -->
<g id="edge29" class="edge">
<title>SharedModule&#45;&gt;SettingsModule</title>
<path fill="none" stroke="black" d="M1389,-198.2C1389,-204.03 1389,-209 1389,-209 1389,-209 4180.08,-209 4180.08,-209 4180.08,-209 4180.08,-219.87 4180.08,-219.87"/>
<polygon fill="black" stroke="black" points="4176.58,-219.87 4180.08,-229.87 4183.58,-219.87 4176.58,-219.87"/>
</g>
<!-- FooterComponent  -->
<g id="node41" class="node">
<title>FooterComponent </title>
<polygon fill="#fb8072" stroke="black" points="677.88,-122 556.12,-122 556.12,-86 677.88,-86 677.88,-122"/>
<text text-anchor="middle" x="617" y="-99.8" font-family="Times,serif" font-size="14.00">FooterComponent </text>
</g>
<!-- SharedModule&#45;&gt;FooterComponent  -->
<g id="edge40" class="edge">
<title>SharedModule&#45;&gt;FooterComponent </title>
<path fill="none" stroke="black" stroke-dasharray="5,2" d="M1354.35,-161.97C1354.35,-155.15 1354.35,-149 1354.35,-149 1354.35,-149 621.8,-149 621.8,-149 621.8,-149 621.8,-132.04 621.8,-132.04"/>
<polygon fill="black" stroke="black" points="625.3,-132.04 621.8,-122.04 618.3,-132.04 625.3,-132.04"/>
</g>
<!-- MenuSelectionDirective  -->
<g id="node42" class="node">
<title>MenuSelectionDirective </title>
<polygon fill="#fb8072" stroke="black" points="538.34,-122 381.66,-122 381.66,-86 538.34,-86 538.34,-122"/>
<text text-anchor="middle" x="460" y="-99.8" font-family="Times,serif" font-size="14.00">MenuSelectionDirective </text>
</g>
<!-- SharedModule&#45;&gt;MenuSelectionDirective  -->
<g id="edge41" class="edge">
<title>SharedModule&#45;&gt;MenuSelectionDirective </title>
<path fill="none" stroke="black" stroke-dasharray="5,2" d="M1350.71,-161.79C1350.71,-156.45 1350.71,-152 1350.71,-152 1350.71,-152 460,-152 460,-152 460,-152 460,-132.15 460,-132.15"/>
<polygon fill="black" stroke="black" points="463.5,-132.15 460,-122.15 456.5,-132.15 463.5,-132.15"/>
</g>
<!-- NetworkStatusComponent  -->
<g id="node43" class="node">
<title>NetworkStatusComponent </title>
<polygon fill="#fb8072" stroke="black" points="364.03,-122 195.97,-122 195.97,-86 364.03,-86 364.03,-122"/>
<text text-anchor="middle" x="280" y="-99.8" font-family="Times,serif" font-size="14.00">NetworkStatusComponent </text>
</g>
<!-- SharedModule&#45;&gt;NetworkStatusComponent  -->
<g id="edge42" class="edge">
<title>SharedModule&#45;&gt;NetworkStatusComponent </title>
<path fill="none" stroke="black" stroke-dasharray="5,2" d="M1347.07,-161.81C1347.07,-158.46 1347.07,-156 1347.07,-156 1347.07,-156 357.87,-156 357.87,-156 357.87,-156 357.87,-132.19 357.87,-132.19"/>
<polygon fill="black" stroke="black" points="361.37,-132.19 357.87,-122.19 354.37,-132.19 361.37,-132.19"/>
</g>
<!-- SafePipe  -->
<g id="node44" class="node">
<title>SafePipe </title>
<polygon fill="#fb8072" stroke="black" points="177.76,-122 108.24,-122 108.24,-86 177.76,-86 177.76,-122"/>
<text text-anchor="middle" x="143" y="-99.8" font-family="Times,serif" font-size="14.00">SafePipe </text>
</g>
<!-- SharedModule&#45;&gt;SafePipe  -->
<g id="edge43" class="edge">
<title>SharedModule&#45;&gt;SafePipe </title>
<path fill="none" stroke="black" stroke-dasharray="5,2" d="M1343.43,-161.92C1343.43,-160.15 1343.43,-159 1343.43,-159 1343.43,-159 172.7,-159 172.7,-159 172.7,-159 172.7,-132.01 172.7,-132.01"/>
<polygon fill="black" stroke="black" points="176.2,-132.01 172.7,-122.01 169.2,-132.01 176.2,-132.01"/>
</g>
<!-- SidebarComponent  -->
<g id="node45" class="node">
<title>SidebarComponent </title>
<polygon fill="#fb8072" stroke="black" points="1211.6,-122 1084.4,-122 1084.4,-86 1211.6,-86 1211.6,-122"/>
<text text-anchor="middle" x="1148" y="-99.8" font-family="Times,serif" font-size="14.00">SidebarComponent </text>
</g>
<!-- SharedModule&#45;&gt;SidebarComponent  -->
<g id="edge44" class="edge">
<title>SharedModule&#45;&gt;SidebarComponent </title>
<path fill="none" stroke="black" stroke-dasharray="5,2" d="M1368.92,-161.85C1368.92,-149.73 1368.92,-136 1368.92,-136 1368.92,-136 1188.01,-136 1188.01,-136 1188.01,-136 1188.01,-132.24 1188.01,-132.24"/>
<polygon fill="black" stroke="black" points="1191.51,-132.24 1188.01,-122.24 1184.51,-132.24 1191.51,-132.24"/>
</g>
<!-- TokenRatioPipe  -->
<g id="node46" class="node">
<title>TokenRatioPipe </title>
<polygon fill="#fb8072" stroke="black" points="1066.49,-122 955.51,-122 955.51,-86 1066.49,-86 1066.49,-122"/>
<text text-anchor="middle" x="1011" y="-99.8" font-family="Times,serif" font-size="14.00">TokenRatioPipe </text>
</g>
<!-- SharedModule&#45;&gt;TokenRatioPipe  -->
<g id="edge45" class="edge">
<title>SharedModule&#45;&gt;TokenRatioPipe </title>
<path fill="none" stroke="black" stroke-dasharray="5,2" d="M1365.28,-161.9C1365.28,-150.91 1365.28,-139 1365.28,-139 1365.28,-139 1011,-139 1011,-139 1011,-139 1011,-132.32 1011,-132.32"/>
<polygon fill="black" stroke="black" points="1014.5,-132.32 1011,-122.32 1007.5,-132.32 1014.5,-132.32"/>
</g>
<!-- TopbarComponent  -->
<g id="node47" class="node">
<title>TopbarComponent </title>
<polygon fill="#fb8072" stroke="black" points="937.76,-122 812.24,-122 812.24,-86 937.76,-86 937.76,-122"/>
<text text-anchor="middle" x="875" y="-99.8" font-family="Times,serif" font-size="14.00">TopbarComponent </text>
</g>
<!-- SharedModule&#45;&gt;TopbarComponent  -->
<g id="edge46" class="edge">
<title>SharedModule&#45;&gt;TopbarComponent </title>
<path fill="none" stroke="black" stroke-dasharray="5,2" d="M1361.64,-161.89C1361.64,-152.1 1361.64,-142 1361.64,-142 1361.64,-142 927.45,-142 927.45,-142 927.45,-142 927.45,-132.11 927.45,-132.11"/>
<polygon fill="black" stroke="black" points="930.95,-132.11 927.45,-122.11 923.95,-132.11 930.95,-132.11"/>
</g>
<!-- UnixDatePipe  -->
<g id="node48" class="node">
<title>UnixDatePipe </title>
<polygon fill="#fb8072" stroke="black" points="794.31,-122 695.69,-122 695.69,-86 794.31,-86 794.31,-122"/>
<text text-anchor="middle" x="745" y="-99.8" font-family="Times,serif" font-size="14.00">UnixDatePipe </text>
</g>
<!-- SharedModule&#45;&gt;UnixDatePipe  -->
<g id="edge47" class="edge">
<title>SharedModule&#45;&gt;UnixDatePipe </title>
<path fill="none" stroke="black" stroke-dasharray="5,2" d="M1357.99,-161.81C1357.99,-153.72 1357.99,-146 1357.99,-146 1357.99,-146 779.99,-146 779.99,-146 779.99,-146 779.99,-132.06 779.99,-132.06"/>
<polygon fill="black" stroke="black" points="783.49,-132.06 779.99,-122.06 776.49,-132.06 783.49,-132.06"/>
</g>
<!-- TokensModule -->
<g id="node51" class="node">
<title>TokensModule</title>
<polygon fill="#8dd3c7" stroke="black" points="4775.26,-266 4772.26,-270 4751.26,-270 4748.26,-266 4674.74,-266 4674.74,-230 4775.26,-230 4775.26,-266"/>
<text text-anchor="middle" x="4725" y="-243.8" font-family="Times,serif" font-size="14.00">TokensModule</text>
</g>
<!-- SharedModule&#45;&gt;TokensModule -->
<g id="edge50" class="edge">
<title>SharedModule&#45;&gt;TokensModule</title>
<path fill="none" stroke="black" d="M1401.3,-198.19C1401.3,-201.54 1401.3,-204 1401.3,-204 1401.3,-204 4689.39,-204 4689.39,-204 4689.39,-204 4689.39,-219.85 4689.39,-219.85"/>
<polygon fill="black" stroke="black" points="4685.89,-219.85 4689.39,-229.85 4692.89,-219.85 4685.89,-219.85"/>
</g>
<!-- TransactionsModule&#45;&gt;AccountsModule -->
<g id="edge7" class="edge">
<title>TransactionsModule&#45;&gt;AccountsModule</title>
<path fill="none" stroke="black" d="M1230,-266.29C1230,-288.21 1230,-322 1230,-322 1230,-322 1478.68,-322 1478.68,-322"/>
<polygon fill="black" stroke="black" points="1478.68,-325.5 1488.68,-322 1478.68,-318.5 1478.68,-325.5"/>
</g>
<!-- TransactionDetailsComponent  -->
<g id="node56" class="node">
<title>TransactionDetailsComponent </title>
<polygon fill="#fb8072" stroke="black" points="542.07,-198 351.93,-198 351.93,-162 542.07,-162 542.07,-198"/>
<text text-anchor="middle" x="447" y="-175.8" font-family="Times,serif" font-size="14.00">TransactionDetailsComponent </text>
</g>
<!-- TransactionsModule&#45;&gt;TransactionDetailsComponent  -->
<g id="edge56" class="edge">
<title>TransactionsModule&#45;&gt;TransactionDetailsComponent </title>
<path fill="none" stroke="black" stroke-dasharray="5,2" d="M1164.25,-259C975.77,-259 447,-259 447,-259 447,-259 447,-208.32 447,-208.32"/>
<polygon fill="black" stroke="black" points="450.5,-208.32 447,-198.32 443.5,-208.32 450.5,-208.32"/>
</g>
<!-- AdminComponent -->
<g id="node9" class="node">
<title>AdminComponent</title>
<polygon fill="#ffffb3" stroke="black" points="312.22,-198 191.78,-198 191.78,-162 312.22,-162 312.22,-198"/>
<text text-anchor="middle" x="252" y="-175.8" font-family="Times,serif" font-size="14.00">AdminComponent</text>
</g>
<!-- AdminComponent&#45;&gt;AdminModule -->
<g id="edge8" class="edge">
<title>AdminComponent&#45;&gt;AdminModule</title>
<path fill="none" stroke="black" d="M235.59,-198.22C235.59,-198.22 235.59,-219.73 235.59,-219.73"/>
<polygon fill="black" stroke="black" points="232.09,-219.73 235.59,-229.73 239.09,-219.73 232.09,-219.73"/>
</g>
<!-- AdminRoutingModule -->
<g id="node11" class="node">
<title>AdminRoutingModule</title>
<polygon fill="#8dd3c7" stroke="black" points="167.56,-198 164.56,-202 143.56,-202 140.56,-198 24.44,-198 24.44,-162 167.56,-162 167.56,-198"/>
<text text-anchor="middle" x="96" y="-175.8" font-family="Times,serif" font-size="14.00">AdminRoutingModule</text>
</g>
<!-- AdminRoutingModule&#45;&gt;AdminModule -->
<g id="edge9" class="edge">
<title>AdminRoutingModule&#45;&gt;AdminModule</title>
<path fill="none" stroke="black" d="M96,-198.22C96,-218.37 96,-248 96,-248 96,-248 192.64,-248 192.64,-248"/>
<polygon fill="black" stroke="black" points="192.64,-251.5 202.64,-248 192.64,-244.5 192.64,-251.5"/>
</g>
<!-- AppComponent -->
<g id="node12" class="node">
<title>AppComponent</title>
<polygon fill="#ffffb3" stroke="black" points="3219.94,-198 3114.06,-198 3114.06,-162 3219.94,-162 3219.94,-198"/>
<text text-anchor="middle" x="3167" y="-175.8" font-family="Times,serif" font-size="14.00">AppComponent</text>
</g>
<!-- AppComponent&#45;&gt;AppModule -->
<g id="edge11" class="edge">
<title>AppComponent&#45;&gt;AppModule</title>
<path fill="none" stroke="black" d="M3167,-198.25C3167,-221.02 3167,-257 3167,-257 3167,-257 2690.87,-257 2690.87,-257"/>
<polygon fill="black" stroke="black" points="2690.87,-253.5 2680.87,-257 2690.87,-260.5 2690.87,-253.5"/>
</g>
<!-- AppComponent  -->
<g id="node15" class="node">
<title>AppComponent </title>
<polygon fill="#80b1d3" stroke="black" points="2693.44,-331 2584.56,-331 2584.56,-295 2693.44,-295 2693.44,-331"/>
<text text-anchor="middle" x="2639" y="-308.8" font-family="Times,serif" font-size="14.00">AppComponent </text>
</g>
<!-- AppModule&#45;&gt;AppComponent  -->
<g id="edge14" class="edge">
<title>AppModule&#45;&gt;AppComponent </title>
<path fill="none" stroke="black" stroke-dasharray="1,5" d="M2639,-266.11C2639,-266.11 2639,-284.99 2639,-284.99"/>
<polygon fill="black" stroke="black" points="2635.5,-284.99 2639,-294.99 2642.5,-284.99 2635.5,-284.99"/>
</g>
<!-- AppRoutingModule -->
<g id="node14" class="node">
<title>AppRoutingModule</title>
<polygon fill="#8dd3c7" stroke="black" points="3090.27,-198 3087.27,-202 3066.27,-202 3063.27,-198 2961.73,-198 2961.73,-162 3090.27,-162 3090.27,-198"/>
<text text-anchor="middle" x="3026" y="-175.8" font-family="Times,serif" font-size="14.00">AppRoutingModule</text>
</g>
<!-- AppRoutingModule&#45;&gt;AppModule -->
<g id="edge12" class="edge">
<title>AppRoutingModule&#45;&gt;AppModule</title>
<path fill="none" stroke="black" d="M3026,-198.22C3026,-218.37 3026,-248 3026,-248 3026,-248 2690.78,-248 2690.78,-248"/>
<polygon fill="black" stroke="black" points="2690.78,-244.5 2680.78,-248 2690.78,-251.5 2690.78,-244.5"/>
</g>
<!-- ErrorInterceptor -->
<g id="node16" class="node">
<title>ErrorInterceptor</title>
<ellipse fill="#fdb462" stroke="black" cx="2461" cy="-180" rx="73.53" ry="18"/>
<text text-anchor="middle" x="2461" y="-175.8" font-family="Times,serif" font-size="14.00">ErrorInterceptor</text>
</g>
<!-- ErrorInterceptor&#45;&gt;AppModule -->
<g id="edge15" class="edge">
<title>ErrorInterceptor&#45;&gt;AppModule</title>
<path fill="none" stroke="black" d="M2461,-198.02C2461,-215.37 2461,-239 2461,-239 2461,-239 2587.27,-239 2587.27,-239"/>
<polygon fill="black" stroke="black" points="2587.27,-242.5 2597.27,-239 2587.27,-235.5 2587.27,-242.5"/>
</g>
<!-- GlobalErrorHandler -->
<g id="node17" class="node">
<title>GlobalErrorHandler</title>
<ellipse fill="#fdb462" stroke="black" cx="2280" cy="-180" rx="88.58" ry="18"/>
<text text-anchor="middle" x="2280" y="-175.8" font-family="Times,serif" font-size="14.00">GlobalErrorHandler</text>
</g>
<!-- GlobalErrorHandler&#45;&gt;AppModule -->
<g id="edge16" class="edge">
<title>GlobalErrorHandler&#45;&gt;AppModule</title>
<path fill="none" stroke="black" d="M2280,-198.22C2280,-218.37 2280,-248 2280,-248 2280,-248 2587.12,-248 2587.12,-248"/>
<polygon fill="black" stroke="black" points="2587.12,-251.5 2597.12,-248 2587.12,-244.5 2587.12,-251.5"/>
</g>
<!-- HttpConfigInterceptor -->
<g id="node18" class="node">
<title>HttpConfigInterceptor</title>
<ellipse fill="#fdb462" stroke="black" cx="2841" cy="-180" rx="97.27" ry="18"/>
<text text-anchor="middle" x="2841" y="-175.8" font-family="Times,serif" font-size="14.00">HttpConfigInterceptor</text>
</g>
<!-- HttpConfigInterceptor&#45;&gt;AppModule -->
<g id="edge17" class="edge">
<title>HttpConfigInterceptor&#45;&gt;AppModule</title>
<path fill="none" stroke="black" d="M2841,-198.02C2841,-215.37 2841,-239 2841,-239 2841,-239 2690.85,-239 2690.85,-239"/>
<polygon fill="black" stroke="black" points="2690.85,-235.5 2680.85,-239 2690.85,-242.5 2690.85,-235.5"/>
</g>
<!-- LoggingInterceptor -->
<g id="node19" class="node">
<title>LoggingInterceptor</title>
<ellipse fill="#fdb462" stroke="black" cx="2639" cy="-180" rx="86.24" ry="18"/>
<text text-anchor="middle" x="2639" y="-175.8" font-family="Times,serif" font-size="14.00">LoggingInterceptor</text>
</g>
<!-- LoggingInterceptor&#45;&gt;AppModule -->
<g id="edge18" class="edge">
<title>LoggingInterceptor&#45;&gt;AppModule</title>
<path fill="none" stroke="black" d="M2639,-198.22C2639,-198.22 2639,-219.73 2639,-219.73"/>
<polygon fill="black" stroke="black" points="2635.5,-219.73 2639,-229.73 2642.5,-219.73 2635.5,-219.73"/>
</g>
<!-- AuthComponent -->
<g id="node20" class="node">
<title>AuthComponent</title>
<polygon fill="#ffffb3" stroke="black" points="3704.83,-198 3595.17,-198 3595.17,-162 3704.83,-162 3704.83,-198"/>
<text text-anchor="middle" x="3650" y="-175.8" font-family="Times,serif" font-size="14.00">AuthComponent</text>
</g>
<!-- AuthComponent&#45;&gt;AuthModule -->
<g id="edge19" class="edge">
<title>AuthComponent&#45;&gt;AuthModule</title>
<path fill="none" stroke="black" d="M3650,-198.22C3650,-218.37 3650,-248 3650,-248 3650,-248 3464.56,-248 3464.56,-248"/>
<polygon fill="black" stroke="black" points="3464.56,-244.5 3454.56,-248 3464.56,-251.5 3464.56,-244.5"/>
</g>
<!-- PasswordToggleDirective -->
<g id="node21" class="node">
<title>PasswordToggleDirective</title>
<polygon fill="#ffffb3" stroke="black" points="3577.89,-198 3416.11,-198 3416.11,-162 3577.89,-162 3577.89,-198"/>
<text text-anchor="middle" x="3497" y="-175.8" font-family="Times,serif" font-size="14.00">PasswordToggleDirective</text>
</g>
<!-- PasswordToggleDirective&#45;&gt;AuthModule -->
<g id="edge20" class="edge">
<title>PasswordToggleDirective&#45;&gt;AuthModule</title>
<path fill="none" stroke="black" d="M3435.54,-198.22C3435.54,-198.22 3435.54,-219.73 3435.54,-219.73"/>
<polygon fill="black" stroke="black" points="3432.04,-219.73 3435.54,-229.73 3439.04,-219.73 3432.04,-219.73"/>
</g>
<!-- AuthRoutingModule -->
<g id="node23" class="node">
<title>AuthRoutingModule</title>
<polygon fill="#8dd3c7" stroke="black" points="3392.17,-198 3389.17,-202 3368.17,-202 3365.17,-198 3259.83,-198 3259.83,-162 3392.17,-162 3392.17,-198"/>
<text text-anchor="middle" x="3326" y="-175.8" font-family="Times,serif" font-size="14.00">AuthRoutingModule</text>
</g>
<!-- AuthRoutingModule&#45;&gt;AuthModule -->
<g id="edge21" class="edge">
<title>AuthRoutingModule&#45;&gt;AuthModule</title>
<path fill="none" stroke="black" d="M3383.96,-198.22C3383.96,-198.22 3383.96,-219.73 3383.96,-219.73"/>
<polygon fill="black" stroke="black" points="3380.46,-219.73 3383.96,-229.73 3387.46,-219.73 3380.46,-219.73"/>
</g>
<!-- PagesComponent -->
<g id="node24" class="node">
<title>PagesComponent</title>
<polygon fill="#ffffb3" stroke="black" points="4020.99,-198 3907.01,-198 3907.01,-162 4020.99,-162 4020.99,-198"/>
<text text-anchor="middle" x="3964" y="-175.8" font-family="Times,serif" font-size="14.00">PagesComponent</text>
</g>
<!-- PagesComponent&#45;&gt;PagesModule -->
<g id="edge23" class="edge">
<title>PagesComponent&#45;&gt;PagesModule</title>
<path fill="none" stroke="black" d="M3964,-198.22C3964,-218.37 3964,-248 3964,-248 3964,-248 3870.23,-248 3870.23,-248"/>
<polygon fill="black" stroke="black" points="3870.23,-244.5 3860.23,-248 3870.23,-251.5 3870.23,-244.5"/>
</g>
<!-- PagesRoutingModule -->
<g id="node26" class="node">
<title>PagesRoutingModule</title>
<polygon fill="#8dd3c7" stroke="black" points="3882.82,-198 3879.82,-202 3858.82,-202 3855.82,-198 3745.18,-198 3745.18,-162 3882.82,-162 3882.82,-198"/>
<text text-anchor="middle" x="3814" y="-175.8" font-family="Times,serif" font-size="14.00">PagesRoutingModule</text>
</g>
<!-- PagesRoutingModule&#45;&gt;PagesModule -->
<g id="edge24" class="edge">
<title>PagesRoutingModule&#45;&gt;PagesModule</title>
<path fill="none" stroke="black" d="M3829.37,-198.22C3829.37,-198.22 3829.37,-219.73 3829.37,-219.73"/>
<polygon fill="black" stroke="black" points="3825.87,-219.73 3829.37,-229.73 3832.87,-219.73 3825.87,-219.73"/>
</g>
<!-- OrganizationComponent -->
<g id="node27" class="node">
<title>OrganizationComponent</title>
<polygon fill="#ffffb3" stroke="black" points="4533.42,-198 4378.58,-198 4378.58,-162 4533.42,-162 4533.42,-198"/>
<text text-anchor="middle" x="4456" y="-175.8" font-family="Times,serif" font-size="14.00">OrganizationComponent</text>
</g>
<!-- OrganizationComponent&#45;&gt;SettingsModule -->
<g id="edge26" class="edge">
<title>OrganizationComponent&#45;&gt;SettingsModule</title>
<path fill="none" stroke="black" d="M4456,-198.22C4456,-218.37 4456,-248 4456,-248 4456,-248 4279.45,-248 4279.45,-248"/>
<polygon fill="black" stroke="black" points="4279.45,-244.5 4269.45,-248 4279.45,-251.5 4279.45,-244.5"/>
</g>
<!-- SettingsComponent -->
<g id="node28" class="node">
<title>SettingsComponent</title>
<polygon fill="#ffffb3" stroke="black" points="4361.45,-198 4234.55,-198 4234.55,-162 4361.45,-162 4361.45,-198"/>
<text text-anchor="middle" x="4298" y="-175.8" font-family="Times,serif" font-size="14.00">SettingsComponent</text>
</g>
<!-- SettingsComponent&#45;&gt;SettingsModule -->
<g id="edge27" class="edge">
<title>SettingsComponent&#45;&gt;SettingsModule</title>
<path fill="none" stroke="black" d="M4252.05,-198.22C4252.05,-198.22 4252.05,-219.73 4252.05,-219.73"/>
<polygon fill="black" stroke="black" points="4248.55,-219.73 4252.05,-229.73 4255.55,-219.73 4248.55,-219.73"/>
</g>
<!-- SettingsRoutingModule -->
<g id="node30" class="node">
<title>SettingsRoutingModule</title>
<polygon fill="#8dd3c7" stroke="black" points="4210.78,-198 4207.78,-202 4186.78,-202 4183.78,-198 4061.22,-198 4061.22,-162 4210.78,-162 4210.78,-198"/>
<text text-anchor="middle" x="4136" y="-175.8" font-family="Times,serif" font-size="14.00">SettingsRoutingModule</text>
</g>
<!-- SettingsRoutingModule&#45;&gt;SettingsModule -->
<g id="edge28" class="edge">
<title>SettingsRoutingModule&#45;&gt;SettingsModule</title>
<path fill="none" stroke="black" d="M4195.48,-198.22C4195.48,-198.22 4195.48,-219.73 4195.48,-219.73"/>
<polygon fill="black" stroke="black" points="4191.98,-219.73 4195.48,-229.73 4198.98,-219.73 4191.98,-219.73"/>
</g>
<!-- ErrorDialogComponent -->
<g id="node31" class="node">
<title>ErrorDialogComponent</title>
<polygon fill="#ffffb3" stroke="black" points="1849.47,-122 1700.53,-122 1700.53,-86 1849.47,-86 1849.47,-122"/>
<text text-anchor="middle" x="1775" y="-99.8" font-family="Times,serif" font-size="14.00">ErrorDialogComponent</text>
</g>
<!-- ErrorDialogComponent&#45;&gt;SharedModule -->
<g id="edge30" class="edge">
<title>ErrorDialogComponent&#45;&gt;SharedModule</title>
<path fill="none" stroke="black" d="M1757.86,-122.13C1757.86,-142.57 1757.86,-173 1757.86,-173 1757.86,-173 1448.36,-173 1448.36,-173"/>
<polygon fill="black" stroke="black" points="1448.36,-169.5 1438.36,-173 1448.36,-176.5 1448.36,-169.5"/>
</g>
<!-- FooterComponent -->
<g id="node32" class="node">
<title>FooterComponent</title>
<polygon fill="#ffffb3" stroke="black" points="1682.88,-122 1565.12,-122 1565.12,-86 1682.88,-86 1682.88,-122"/>
<text text-anchor="middle" x="1624" y="-99.8" font-family="Times,serif" font-size="14.00">FooterComponent</text>
</g>
<!-- FooterComponent&#45;&gt;SharedModule -->
<g id="edge31" class="edge">
<title>FooterComponent&#45;&gt;SharedModule</title>
<path fill="none" stroke="black" d="M1596.74,-122.17C1596.74,-141.09 1596.74,-168 1596.74,-168 1596.74,-168 1448.23,-168 1448.23,-168"/>
<polygon fill="black" stroke="black" points="1448.23,-164.5 1438.23,-168 1448.23,-171.5 1448.23,-164.5"/>
</g>
<!-- MenuSelectionDirective -->
<g id="node33" class="node">
<title>MenuSelectionDirective</title>
<polygon fill="#ffffb3" stroke="black" points="1547.34,-122 1394.66,-122 1394.66,-86 1547.34,-86 1547.34,-122"/>
<text text-anchor="middle" x="1471" y="-99.8" font-family="Times,serif" font-size="14.00">MenuSelectionDirective</text>
</g>
<!-- MenuSelectionDirective&#45;&gt;SharedModule -->
<g id="edge32" class="edge">
<title>MenuSelectionDirective&#45;&gt;SharedModule</title>
<path fill="none" stroke="black" d="M1403.31,-122.01C1403.31,-122.01 1403.31,-151.85 1403.31,-151.85"/>
<polygon fill="black" stroke="black" points="1399.81,-151.85 1403.31,-161.85 1406.81,-151.85 1399.81,-151.85"/>
</g>
<!-- MenuToggleDirective -->
<g id="node34" class="node">
<title>MenuToggleDirective</title>
<polygon fill="#ffffb3" stroke="black" points="1376.4,-122 1235.6,-122 1235.6,-86 1376.4,-86 1376.4,-122"/>
<text text-anchor="middle" x="1306" y="-99.8" font-family="Times,serif" font-size="14.00">MenuToggleDirective</text>
</g>
<!-- MenuToggleDirective&#45;&gt;SharedModule -->
<g id="edge33" class="edge">
<title>MenuToggleDirective&#45;&gt;SharedModule</title>
<path fill="none" stroke="black" d="M1372.56,-122.01C1372.56,-122.01 1372.56,-151.85 1372.56,-151.85"/>
<polygon fill="black" stroke="black" points="1369.06,-151.85 1372.56,-161.85 1376.06,-151.85 1369.06,-151.85"/>
</g>
<!-- NetworkStatusComponent -->
<g id="node35" class="node">
<title>NetworkStatusComponent</title>
<polygon fill="#ffffb3" stroke="black" points="2636.04,-122 2471.96,-122 2471.96,-86 2636.04,-86 2636.04,-122"/>
<text text-anchor="middle" x="2554" y="-99.8" font-family="Times,serif" font-size="14.00">NetworkStatusComponent</text>
</g>
<!-- NetworkStatusComponent&#45;&gt;SharedModule -->
<g id="edge34" class="edge">
<title>NetworkStatusComponent&#45;&gt;SharedModule</title>
<path fill="none" stroke="black" d="M2503.25,-122.21C2503.25,-127.55 2503.25,-132 2503.25,-132 2503.25,-132 1429.48,-132 1429.48,-132 1429.48,-132 1429.48,-151.85 1429.48,-151.85"/>
<polygon fill="black" stroke="black" points="1425.98,-151.85 1429.48,-161.85 1432.98,-151.85 1425.98,-151.85"/>
</g>
<!-- SafePipe -->
<g id="node36" class="node">
<title>SafePipe</title>
<polygon fill="#ffffb3" stroke="black" points="2453.76,-122 2388.24,-122 2388.24,-86 2453.76,-86 2453.76,-122"/>
<text text-anchor="middle" x="2421" y="-99.8" font-family="Times,serif" font-size="14.00">SafePipe</text>
</g>
<!-- SafePipe&#45;&gt;SharedModule -->
<g id="edge35" class="edge">
<title>SafePipe&#45;&gt;SharedModule</title>
<path fill="none" stroke="black" d="M2421,-122.17C2421,-126.05 2421,-129 2421,-129 2421,-129 1420.76,-129 1420.76,-129 1420.76,-129 1420.76,-151.88 1420.76,-151.88"/>
<polygon fill="black" stroke="black" points="1417.26,-151.88 1420.76,-161.88 1424.26,-151.88 1417.26,-151.88"/>
</g>
<!-- SidebarComponent -->
<g id="node37" class="node">
<title>SidebarComponent</title>
<polygon fill="#ffffb3" stroke="black" points="2370.1,-122 2245.9,-122 2245.9,-86 2370.1,-86 2370.1,-122"/>
<text text-anchor="middle" x="2308" y="-99.8" font-family="Times,serif" font-size="14.00">SidebarComponent</text>
</g>
<!-- SidebarComponent&#45;&gt;SharedModule -->
<g id="edge36" class="edge">
<title>SidebarComponent&#45;&gt;SharedModule</title>
<path fill="none" stroke="black" d="M2307.37,-122.17C2307.37,-124.45 2307.37,-126 2307.37,-126 2307.37,-126 1412.03,-126 1412.03,-126 1412.03,-126 1412.03,-151.72 1412.03,-151.72"/>
<polygon fill="black" stroke="black" points="1408.53,-151.72 1412.03,-161.72 1415.53,-151.72 1408.53,-151.72"/>
</g>
<!-- TokenRatioPipe -->
<g id="node38" class="node">
<title>TokenRatioPipe</title>
<polygon fill="#ffffb3" stroke="black" points="2227.49,-122 2120.51,-122 2120.51,-86 2227.49,-86 2227.49,-122"/>
<text text-anchor="middle" x="2174" y="-99.8" font-family="Times,serif" font-size="14.00">TokenRatioPipe</text>
</g>
<!-- TokenRatioPipe&#45;&gt;SharedModule -->
<g id="edge37" class="edge">
<title>TokenRatioPipe&#45;&gt;SharedModule</title>
<path fill="none" stroke="black" d="M2135.8,-122.23C2135.8,-146.93 2135.8,-188 2135.8,-188 2135.8,-188 1448.29,-188 1448.29,-188"/>
<polygon fill="black" stroke="black" points="1448.29,-184.5 1438.29,-188 1448.29,-191.5 1448.29,-184.5"/>
</g>
<!-- TopbarComponent -->
<g id="node39" class="node">
<title>TopbarComponent</title>
<polygon fill="#ffffb3" stroke="black" points="2102.76,-122 1981.24,-122 1981.24,-86 2102.76,-86 2102.76,-122"/>
<text text-anchor="middle" x="2042" y="-99.8" font-family="Times,serif" font-size="14.00">TopbarComponent</text>
</g>
<!-- TopbarComponent&#45;&gt;SharedModule -->
<g id="edge38" class="edge">
<title>TopbarComponent&#45;&gt;SharedModule</title>
<path fill="none" stroke="black" d="M1989.88,-122.32C1989.88,-145.66 1989.88,-183 1989.88,-183 1989.88,-183 1448.43,-183 1448.43,-183"/>
<polygon fill="black" stroke="black" points="1448.43,-179.5 1438.43,-183 1448.43,-186.5 1448.43,-179.5"/>
</g>
<!-- UnixDatePipe -->
<g id="node40" class="node">
<title>UnixDatePipe</title>
<polygon fill="#ffffb3" stroke="black" points="1962.81,-122 1867.19,-122 1867.19,-86 1962.81,-86 1962.81,-122"/>
<text text-anchor="middle" x="1915" y="-99.8" font-family="Times,serif" font-size="14.00">UnixDatePipe</text>
</g>
<!-- UnixDatePipe&#45;&gt;SharedModule -->
<g id="edge39" class="edge">
<title>UnixDatePipe&#45;&gt;SharedModule</title>
<path fill="none" stroke="black" d="M1915,-122.29C1915,-144.21 1915,-178 1915,-178 1915,-178 1448.48,-178 1448.48,-178"/>
<polygon fill="black" stroke="black" points="1448.48,-174.5 1438.48,-178 1448.48,-181.5 1448.48,-174.5"/>
</g>
<!-- TokenDetailsComponent -->
<g id="node49" class="node">
<title>TokenDetailsComponent</title>
<polygon fill="#ffffb3" stroke="black" points="5040.25,-198 4883.75,-198 4883.75,-162 5040.25,-162 5040.25,-198"/>
<text text-anchor="middle" x="4962" y="-175.8" font-family="Times,serif" font-size="14.00">TokenDetailsComponent</text>
</g>
<!-- TokenDetailsComponent&#45;&gt;TokensModule -->
<g id="edge48" class="edge">
<title>TokenDetailsComponent&#45;&gt;TokensModule</title>
<path fill="none" stroke="black" d="M4962,-198.22C4962,-218.37 4962,-248 4962,-248 4962,-248 4785.55,-248 4785.55,-248"/>
<polygon fill="black" stroke="black" points="4785.55,-244.5 4775.55,-248 4785.55,-251.5 4785.55,-244.5"/>
</g>
<!-- TokensComponent -->
<g id="node50" class="node">
<title>TokensComponent</title>
<polygon fill="#ffffb3" stroke="black" points="4865.05,-198 4742.95,-198 4742.95,-162 4865.05,-162 4865.05,-198"/>
<text text-anchor="middle" x="4804" y="-175.8" font-family="Times,serif" font-size="14.00">TokensComponent</text>
</g>
<!-- TokensComponent&#45;&gt;TokensModule -->
<g id="edge49" class="edge">
<title>TokensComponent&#45;&gt;TokensModule</title>
<path fill="none" stroke="black" d="M4759.05,-198.22C4759.05,-198.22 4759.05,-219.73 4759.05,-219.73"/>
<polygon fill="black" stroke="black" points="4755.55,-219.73 4759.05,-229.73 4762.55,-219.73 4755.55,-219.73"/>
</g>
<!-- TokensRoutingModule -->
<g id="node52" class="node">
<title>TokensRoutingModule</title>
<polygon fill="#8dd3c7" stroke="black" points="4718.88,-198 4715.88,-202 4694.88,-202 4691.88,-198 4573.12,-198 4573.12,-162 4718.88,-162 4718.88,-198"/>
<text text-anchor="middle" x="4646" y="-175.8" font-family="Times,serif" font-size="14.00">TokensRoutingModule</text>
</g>
<!-- TokensRoutingModule&#45;&gt;TokensModule -->
<g id="edge51" class="edge">
<title>TokensRoutingModule&#45;&gt;TokensModule</title>
<path fill="none" stroke="black" d="M4704.17,-198.22C4704.17,-198.22 4704.17,-219.73 4704.17,-219.73"/>
<polygon fill="black" stroke="black" points="4700.67,-219.73 4704.17,-229.73 4707.67,-219.73 4700.67,-219.73"/>
</g>
<!-- TransactionDetailsComponent -->
<g id="node53" class="node">
<title>TransactionDetailsComponent</title>
<polygon fill="#ffffb3" stroke="black" points="1123.57,-198 936.43,-198 936.43,-162 1123.57,-162 1123.57,-198"/>
<text text-anchor="middle" x="1030" y="-175.8" font-family="Times,serif" font-size="14.00">TransactionDetailsComponent</text>
</g>
<!-- TransactionDetailsComponent&#45;&gt;TransactionsModule -->
<g id="edge52" class="edge">
<title>TransactionDetailsComponent&#45;&gt;TransactionsModule</title>
<path fill="none" stroke="black" d="M1030,-198.03C1030,-215.06 1030,-238 1030,-238 1030,-238 1154.24,-238 1154.24,-238"/>
<polygon fill="black" stroke="black" points="1154.24,-241.5 1164.24,-238 1154.24,-234.5 1154.24,-241.5"/>
</g>
<!-- TransactionsComponent -->
<g id="node54" class="node">
<title>TransactionsComponent</title>
<polygon fill="#ffffb3" stroke="black" points="918.36,-198 765.64,-198 765.64,-162 918.36,-162 918.36,-198"/>
<text text-anchor="middle" x="842" y="-175.8" font-family="Times,serif" font-size="14.00">TransactionsComponent</text>
</g>
<!-- TransactionsComponent&#45;&gt;TransactionsModule -->
<g id="edge53" class="edge">
<title>TransactionsComponent&#45;&gt;TransactionsModule</title>
<path fill="none" stroke="black" d="M842,-198.11C842,-217.34 842,-245 842,-245 842,-245 1154.18,-245 1154.18,-245"/>
<polygon fill="black" stroke="black" points="1154.18,-248.5 1164.18,-245 1154.18,-241.5 1154.18,-248.5"/>
</g>
<!-- TransactionsRoutingModule -->
<g id="node55" class="node">
<title>TransactionsRoutingModule</title>
<polygon fill="#8dd3c7" stroke="black" points="742.2,-198 739.2,-202 718.2,-202 715.2,-198 565.8,-198 565.8,-162 742.2,-162 742.2,-198"/>
<text text-anchor="middle" x="654" y="-175.8" font-family="Times,serif" font-size="14.00">TransactionsRoutingModule</text>
</g>
<!-- TransactionsRoutingModule&#45;&gt;TransactionsModule -->
<g id="edge55" class="edge">
<title>TransactionsRoutingModule&#45;&gt;TransactionsModule</title>
<path fill="none" stroke="black" d="M654,-198.17C654,-219.5 654,-252 654,-252 654,-252 1154.21,-252 1154.21,-252"/>
<polygon fill="black" stroke="black" points="1154.21,-255.5 1164.21,-252 1154.21,-248.5 1154.21,-255.5"/>
</g>
</g>
</svg>
