<?xml version="1.0" encoding="UTF-8" standalone="no"?>
<!DOCTYPE svg PUBLIC "-//W3C//DTD SVG 1.1//EN"
 "http://www.w3.org/Graphics/SVG/1.1/DTD/svg11.dtd">
<!-- Generated by graphviz version 2.47.0 (20210316.0004)
 -->
<!-- Title: dependencies Pages: 1 -->
<svg width="730pt" height="284pt"
 viewBox="0.00 0.00 730.00 284.00" xmlns="http://www.w3.org/2000/svg" xmlns:xlink="http://www.w3.org/1999/xlink">
<g id="graph0" class="graph" transform="scale(1 1) rotate(0) translate(4 280)">
<title>dependencies</title>
<polygon fill="white" stroke="transparent" points="-4,4 -4,-280 726,-280 726,4 -4,4"/>
<text text-anchor="start" x="340.01" y="-42.4" font-family="sans-serif" font-weight="bold" font-size="14.00">Legend</text>
<polygon fill="#ffffb3" stroke="transparent" points="127,-10 127,-30 147,-30 147,-10 127,-10"/>
<text text-anchor="start" x="150.63" y="-15.4" font-family="sans-serif" font-size="14.00"> &#160;Declarations</text>
<polygon fill="#8dd3c7" stroke="transparent" points="240,-10 240,-30 260,-30 260,-10 240,-10"/>
<text text-anchor="start" x="263.73" y="-15.4" font-family="sans-serif" font-size="14.00"> &#160;Module</text>
<polygon fill="#80b1d3" stroke="transparent" points="326,-10 326,-30 346,-30 346,-10 326,-10"/>
<text text-anchor="start" x="349.78" y="-15.4" font-family="sans-serif" font-size="14.00"> &#160;Bootstrap</text>
<polygon fill="#fdb462" stroke="transparent" points="423,-10 423,-30 443,-30 443,-10 423,-10"/>
<text text-anchor="start" x="446.67" y="-15.4" font-family="sans-serif" font-size="14.00"> &#160;Providers</text>
<polygon fill="#fb8072" stroke="transparent" points="519,-10 519,-30 539,-30 539,-10 519,-10"/>
<text text-anchor="start" x="542.73" y="-15.4" font-family="sans-serif" font-size="14.00"> &#160;Exports</text>
<g id="clust1" class="cluster">
<title>cluster_TransactionsModule</title>
<polygon fill="none" stroke="black" stroke-dasharray="1,5" points="8,-70 8,-268 714,-268 714,-70 8,-70"/>
</g>
<g id="clust6" class="cluster">
<title>cluster_TransactionsModule_exports</title>
<polygon fill="none" stroke="black" points="288,-208 288,-260 494,-260 494,-208 288,-208"/>
</g>
<g id="clust5" class="cluster">
<title>cluster_TransactionsModule_imports</title>
<polygon fill="none" stroke="black" points="398,-78 398,-130 706,-130 706,-78 398,-78"/>
</g>
<g id="clust2" class="cluster">
<title>cluster_TransactionsModule_declarations</title>
<polygon fill="none" stroke="black" points="16,-78 16,-130 390,-130 390,-78 16,-78"/>
</g>
<!-- TransactionDetailsComponent -->
<g id="node1" class="node">
<title>TransactionDetailsComponent</title>
<polygon fill="#ffffb3" stroke="black" points="381.57,-122 194.43,-122 194.43,-86 381.57,-86 381.57,-122"/>
<text text-anchor="middle" x="288" y="-99.8" font-family="Times,serif" font-size="14.00">TransactionDetailsComponent</text>
</g>
<!-- TransactionsModule -->
<g id="node3" class="node">
<title>TransactionsModule</title>
<polygon fill="#8dd3c7" stroke="black" points="456.58,-187 453.58,-191 432.58,-191 429.58,-187 325.42,-187 325.42,-151 456.58,-151 456.58,-187"/>
<text text-anchor="middle" x="391" y="-164.8" font-family="Times,serif" font-size="14.00">TransactionsModule</text>
</g>
<!-- TransactionDetailsComponent&#45;&gt;TransactionsModule -->
<g id="edge1" class="edge">
<title>TransactionDetailsComponent&#45;&gt;TransactionsModule</title>
<path fill="none" stroke="black" d="M353.5,-122.11C353.5,-122.11 353.5,-140.99 353.5,-140.99"/>
<polygon fill="black" stroke="black" points="350,-140.99 353.5,-150.99 357,-140.99 350,-140.99"/>
</g>
<!-- TransactionsComponent -->
<g id="node2" class="node">
<title>TransactionsComponent</title>
<polygon fill="#ffffb3" stroke="black" points="176.36,-122 23.64,-122 23.64,-86 176.36,-86 176.36,-122"/>
<text text-anchor="middle" x="100" y="-99.8" font-family="Times,serif" font-size="14.00">TransactionsComponent</text>
</g>
<!-- TransactionsComponent&#45;&gt;TransactionsModule -->
<g id="edge2" class="edge">
<title>TransactionsComponent&#45;&gt;TransactionsModule</title>
<path fill="none" stroke="black" d="M100,-122.11C100,-141.34 100,-169 100,-169 100,-169 315.33,-169 315.33,-169"/>
<polygon fill="black" stroke="black" points="315.33,-172.5 325.33,-169 315.33,-165.5 315.33,-172.5"/>
</g>
<!-- TransactionDetailsComponent  -->
<g id="node6" class="node">
<title>TransactionDetailsComponent </title>
<polygon fill="#fb8072" stroke="black" points="486.07,-252 295.93,-252 295.93,-216 486.07,-216 486.07,-252"/>
<text text-anchor="middle" x="391" y="-229.8" font-family="Times,serif" font-size="14.00">TransactionDetailsComponent </text>
</g>
<!-- TransactionsModule&#45;&gt;TransactionDetailsComponent  -->
<g id="edge5" class="edge">
<title>TransactionsModule&#45;&gt;TransactionDetailsComponent </title>
<path fill="none" stroke="black" stroke-dasharray="5,2" d="M391,-187.11C391,-187.11 391,-205.99 391,-205.99"/>
<polygon fill="black" stroke="black" points="387.5,-205.99 391,-215.99 394.5,-205.99 387.5,-205.99"/>
</g>
<!-- SharedModule -->
<g id="node4" class="node">
<title>SharedModule</title>
<polygon fill="#8dd3c7" stroke="black" points="698.42,-122 695.42,-126 674.42,-126 671.42,-122 599.58,-122 599.58,-86 698.42,-86 698.42,-122"/>
<text text-anchor="middle" x="649" y="-99.8" font-family="Times,serif" font-size="14.00">SharedModule</text>
</g>
<!-- SharedModule&#45;&gt;TransactionsModule -->
<g id="edge3" class="edge">
<title>SharedModule&#45;&gt;TransactionsModule</title>
<path fill="none" stroke="black" d="M649,-122.11C649,-141.34 649,-169 649,-169 649,-169 466.77,-169 466.77,-169"/>
<polygon fill="black" stroke="black" points="466.77,-165.5 456.77,-169 466.77,-172.5 466.77,-165.5"/>
</g>
<!-- TransactionsRoutingModule -->
<g id="node5" class="node">
<title>TransactionsRoutingModule</title>
<polygon fill="#8dd3c7" stroke="black" points="582.2,-122 579.2,-126 558.2,-126 555.2,-122 405.8,-122 405.8,-86 582.2,-86 582.2,-122"/>
<text text-anchor="middle" x="494" y="-99.8" font-family="Times,serif" font-size="14.00">TransactionsRoutingModule</text>
</g>
<!-- TransactionsRoutingModule&#45;&gt;TransactionsModule -->
<g id="edge4" class="edge">
<title>TransactionsRoutingModule&#45;&gt;TransactionsModule</title>
<path fill="none" stroke="black" d="M431.22,-122.11C431.22,-122.11 431.22,-140.99 431.22,-140.99"/>
<polygon fill="black" stroke="black" points="427.72,-140.99 431.22,-150.99 434.72,-140.99 427.72,-140.99"/>
</g>
</g>
</svg>
