<?xml version="1.0" encoding="UTF-8" standalone="no"?>
<!DOCTYPE svg PUBLIC "-//W3C//DTD SVG 1.1//EN"
 "http://www.w3.org/Graphics/SVG/1.1/DTD/svg11.dtd">
<!-- Generated by graphviz version 2.47.0 (20210316.0004)
 -->
<!-- Title: dependencies Pages: 1 -->
<svg width="1202pt" height="284pt"
 viewBox="0.00 0.00 1202.00 284.00" xmlns="http://www.w3.org/2000/svg" xmlns:xlink="http://www.w3.org/1999/xlink">
<g id="graph0" class="graph" transform="scale(1 1) rotate(0) translate(4 280)">
<title>dependencies</title>
<polygon fill="white" stroke="transparent" points="-4,4 -4,-280 1198,-280 1198,4 -4,4"/>
<text text-anchor="start" x="576.01" y="-42.4" font-family="sans-serif" font-weight="bold" font-size="14.00">Legend</text>
<polygon fill="#ffffb3" stroke="transparent" points="363,-10 363,-30 383,-30 383,-10 363,-10"/>
<text text-anchor="start" x="386.63" y="-15.4" font-family="sans-serif" font-size="14.00"> &#160;Declarations</text>
<polygon fill="#8dd3c7" stroke="transparent" points="476,-10 476,-30 496,-30 496,-10 476,-10"/>
<text text-anchor="start" x="499.73" y="-15.4" font-family="sans-serif" font-size="14.00"> &#160;Module</text>
<polygon fill="#80b1d3" stroke="transparent" points="562,-10 562,-30 582,-30 582,-10 562,-10"/>
<text text-anchor="start" x="585.78" y="-15.4" font-family="sans-serif" font-size="14.00"> &#160;Bootstrap</text>
<polygon fill="#fdb462" stroke="transparent" points="659,-10 659,-30 679,-30 679,-10 659,-10"/>
<text text-anchor="start" x="682.67" y="-15.4" font-family="sans-serif" font-size="14.00"> &#160;Providers</text>
<polygon fill="#fb8072" stroke="transparent" points="755,-10 755,-30 775,-30 775,-10 755,-10"/>
<text text-anchor="start" x="778.73" y="-15.4" font-family="sans-serif" font-size="14.00"> &#160;Exports</text>
<g id="clust1" class="cluster">
<title>cluster_AppModule</title>
<polygon fill="none" stroke="black" stroke-dasharray="1,5" points="8,-70 8,-268 1186,-268 1186,-70 8,-70"/>
</g>
<g id="clust6" class="cluster">
<title>cluster_AppModule_bootstrap</title>
<polygon fill="none" stroke="black" points="584,-208 584,-260 708,-260 708,-208 584,-208"/>
</g>
<g id="clust4" class="cluster">
<title>cluster_AppModule_imports</title>
<polygon fill="none" stroke="black" points="917,-78 917,-130 1178,-130 1178,-78 917,-78"/>
</g>
<g id="clust7" class="cluster">
<title>cluster_AppModule_providers</title>
<polygon fill="none" stroke="black" points="146,-78 146,-130 909,-130 909,-78 146,-78"/>
</g>
<g id="clust2" class="cluster">
<title>cluster_AppModule_declarations</title>
<polygon fill="none" stroke="black" points="16,-78 16,-130 138,-130 138,-78 16,-78"/>
</g>
<!-- AppComponent -->
<g id="node1" class="node">
<title>AppComponent</title>
<polygon fill="#ffffb3" stroke="black" points="129.94,-122 24.06,-122 24.06,-86 129.94,-86 129.94,-122"/>
<text text-anchor="middle" x="77" y="-99.8" font-family="Times,serif" font-size="14.00">AppComponent</text>
</g>
<!-- AppModule -->
<g id="node2" class="node">
<title>AppModule</title>
<polygon fill="#8dd3c7" stroke="black" points="687.66,-187 684.66,-191 663.66,-191 660.66,-187 604.34,-187 604.34,-151 687.66,-151 687.66,-187"/>
<text text-anchor="middle" x="646" y="-164.8" font-family="Times,serif" font-size="14.00">AppModule</text>
</g>
<!-- AppComponent&#45;&gt;AppModule -->
<g id="edge1" class="edge">
<title>AppComponent&#45;&gt;AppModule</title>
<path fill="none" stroke="black" d="M77,-122.29C77,-144.21 77,-178 77,-178 77,-178 594.16,-178 594.16,-178"/>
<polygon fill="black" stroke="black" points="594.16,-181.5 604.16,-178 594.16,-174.5 594.16,-181.5"/>
</g>
<!-- AppComponent  -->
<g id="node5" class="node">
<title>AppComponent </title>
<polygon fill="#80b1d3" stroke="black" points="700.44,-252 591.56,-252 591.56,-216 700.44,-216 700.44,-252"/>
<text text-anchor="middle" x="646" y="-229.8" font-family="Times,serif" font-size="14.00">AppComponent </text>
</g>
<!-- AppModule&#45;&gt;AppComponent  -->
<g id="edge4" class="edge">
<title>AppModule&#45;&gt;AppComponent </title>
<path fill="none" stroke="black" stroke-dasharray="1,5" d="M646,-187.11C646,-187.11 646,-205.99 646,-205.99"/>
<polygon fill="black" stroke="black" points="642.5,-205.99 646,-215.99 649.5,-205.99 642.5,-205.99"/>
</g>
<!-- AppRoutingModule -->
<g id="node3" class="node">
<title>AppRoutingModule</title>
<polygon fill="#8dd3c7" stroke="black" points="1170.27,-122 1167.27,-126 1146.27,-126 1143.27,-122 1041.73,-122 1041.73,-86 1170.27,-86 1170.27,-122"/>
<text text-anchor="middle" x="1106" y="-99.8" font-family="Times,serif" font-size="14.00">AppRoutingModule</text>
</g>
<!-- AppRoutingModule&#45;&gt;AppModule -->
<g id="edge2" class="edge">
<title>AppRoutingModule&#45;&gt;AppModule</title>
<path fill="none" stroke="black" d="M1106,-122.29C1106,-144.21 1106,-178 1106,-178 1106,-178 698.04,-178 698.04,-178"/>
<polygon fill="black" stroke="black" points="698.04,-174.5 688.04,-178 698.04,-181.5 698.04,-174.5"/>
</g>
<!-- SharedModule -->
<g id="node4" class="node">
<title>SharedModule</title>
<polygon fill="#8dd3c7" stroke="black" points="1023.42,-122 1020.42,-126 999.42,-126 996.42,-122 924.58,-122 924.58,-86 1023.42,-86 1023.42,-122"/>
<text text-anchor="middle" x="974" y="-99.8" font-family="Times,serif" font-size="14.00">SharedModule</text>
</g>
<!-- SharedModule&#45;&gt;AppModule -->
<g id="edge3" class="edge">
<title>SharedModule&#45;&gt;AppModule</title>
<path fill="none" stroke="black" d="M974,-122.11C974,-141.34 974,-169 974,-169 974,-169 697.87,-169 697.87,-169"/>
<polygon fill="black" stroke="black" points="697.87,-165.5 687.87,-169 697.87,-172.5 697.87,-165.5"/>
</g>
<!-- ErrorInterceptor -->
<g id="node6" class="node">
<title>ErrorInterceptor</title>
<ellipse fill="#fdb462" stroke="black" cx="827" cy="-104" rx="73.53" ry="18"/>
<text text-anchor="middle" x="827" y="-99.8" font-family="Times,serif" font-size="14.00">ErrorInterceptor</text>
</g>
<!-- ErrorInterceptor&#45;&gt;AppModule -->
<g id="edge5" class="edge">
<title>ErrorInterceptor&#45;&gt;AppModule</title>
<path fill="none" stroke="black" d="M827,-122.03C827,-138.4 827,-160 827,-160 827,-160 697.98,-160 697.98,-160"/>
<polygon fill="black" stroke="black" points="697.98,-156.5 687.98,-160 697.98,-163.5 697.98,-156.5"/>
</g>
<!-- GlobalErrorHandler -->
<g id="node7" class="node">
<title>GlobalErrorHandler</title>
<ellipse fill="#fdb462" stroke="black" cx="646" cy="-104" rx="88.58" ry="18"/>
<text text-anchor="middle" x="646" y="-99.8" font-family="Times,serif" font-size="14.00">GlobalErrorHandler</text>
</g>
<!-- GlobalErrorHandler&#45;&gt;AppModule -->
<g id="edge6" class="edge">
<title>GlobalErrorHandler&#45;&gt;AppModule</title>
<path fill="none" stroke="black" d="M646,-122.11C646,-122.11 646,-140.99 646,-140.99"/>
<polygon fill="black" stroke="black" points="642.5,-140.99 646,-150.99 649.5,-140.99 642.5,-140.99"/>
</g>
<!-- HttpConfigInterceptor -->
<g id="node8" class="node">
<title>HttpConfigInterceptor</title>
<ellipse fill="#fdb462" stroke="black" cx="442" cy="-104" rx="97.27" ry="18"/>
<text text-anchor="middle" x="442" y="-99.8" font-family="Times,serif" font-size="14.00">HttpConfigInterceptor</text>
</g>
<!-- HttpConfigInterceptor&#45;&gt;AppModule -->
<g id="edge7" class="edge">
<title>HttpConfigInterceptor&#45;&gt;AppModule</title>
<path fill="none" stroke="black" d="M442,-122.03C442,-138.4 442,-160 442,-160 442,-160 594.23,-160 594.23,-160"/>
<polygon fill="black" stroke="black" points="594.23,-163.5 604.23,-160 594.23,-156.5 594.23,-163.5"/>
</g>
<!-- LoggingInterceptor -->
<g id="node9" class="node">
<title>LoggingInterceptor</title>
<ellipse fill="#fdb462" stroke="black" cx="240" cy="-104" rx="86.24" ry="18"/>
<text text-anchor="middle" x="240" y="-99.8" font-family="Times,serif" font-size="14.00">LoggingInterceptor</text>
</g>
<!-- LoggingInterceptor&#45;&gt;AppModule -->
<g id="edge8" class="edge">
<title>LoggingInterceptor&#45;&gt;AppModule</title>
<path fill="none" stroke="black" d="M240,-122.11C240,-141.34 240,-169 240,-169 240,-169 594.08,-169 594.08,-169"/>
<polygon fill="black" stroke="black" points="594.08,-172.5 604.08,-169 594.08,-165.5 594.08,-172.5"/>
</g>
</g>
</svg>
