<?xml version="1.0" encoding="UTF-8" standalone="no"?>
<!DOCTYPE svg PUBLIC "-//W3C//DTD SVG 1.1//EN"
 "http://www.w3.org/Graphics/SVG/1.1/DTD/svg11.dtd">
<!-- Generated by graphviz version 2.47.0 (20210316.0004)
 -->
<!-- Title: dependencies Pages: 1 -->
<svg width="504pt" height="211pt"
 viewBox="0.00 0.00 504.00 211.00" xmlns="http://www.w3.org/2000/svg" xmlns:xlink="http://www.w3.org/1999/xlink">
<g id="graph0" class="graph" transform="scale(1 1) rotate(0) translate(4 207)">
<title>dependencies</title>
<polygon fill="white" stroke="transparent" points="-4,4 -4,-207 500,-207 500,4 -4,4"/>
<text text-anchor="start" x="227.01" y="-42.4" font-family="sans-serif" font-weight="bold" font-size="14.00">Legend</text>
<polygon fill="#ffffb3" stroke="transparent" points="14,-10 14,-30 34,-30 34,-10 14,-10"/>
<text text-anchor="start" x="37.63" y="-15.4" font-family="sans-serif" font-size="14.00"> &#160;Declarations</text>
<polygon fill="#8dd3c7" stroke="transparent" points="127,-10 127,-30 147,-30 147,-10 127,-10"/>
<text text-anchor="start" x="150.73" y="-15.4" font-family="sans-serif" font-size="14.00"> &#160;Module</text>
<polygon fill="#80b1d3" stroke="transparent" points="213,-10 213,-30 233,-30 233,-10 213,-10"/>
<text text-anchor="start" x="236.78" y="-15.4" font-family="sans-serif" font-size="14.00"> &#160;Bootstrap</text>
<polygon fill="#fdb462" stroke="transparent" points="310,-10 310,-30 330,-30 330,-10 310,-10"/>
<text text-anchor="start" x="333.67" y="-15.4" font-family="sans-serif" font-size="14.00"> &#160;Providers</text>
<polygon fill="#fb8072" stroke="transparent" points="406,-10 406,-30 426,-30 426,-10 406,-10"/>
<text text-anchor="start" x="429.73" y="-15.4" font-family="sans-serif" font-size="14.00"> &#160;Exports</text>
<g id="clust1" class="cluster">
<title>cluster_PagesModule</title>
<polygon fill="none" stroke="black" stroke-dasharray="1,5" points="36,-70 36,-195 460,-195 460,-70 36,-70"/>
</g>
<g id="clust2" class="cluster">
<title>cluster_PagesModule_declarations</title>
<polygon fill="none" stroke="black" points="322,-78 322,-130 452,-130 452,-78 322,-78"/>
</g>
<g id="clust4" class="cluster">
<title>cluster_PagesModule_imports</title>
<polygon fill="none" stroke="black" points="44,-78 44,-130 314,-130 314,-78 44,-78"/>
</g>
<!-- PagesComponent -->
<g id="node1" class="node">
<title>PagesComponent</title>
<polygon fill="#ffffb3" stroke="black" points="443.99,-122 330.01,-122 330.01,-86 443.99,-86 443.99,-122"/>
<text text-anchor="middle" x="387" y="-99.8" font-family="Times,serif" font-size="14.00">PagesComponent</text>
</g>
<!-- PagesModule -->
<g id="node2" class="node">
<title>PagesModule</title>
<polygon fill="#8dd3c7" stroke="black" points="283.21,-187 280.21,-191 259.21,-191 256.21,-187 190.79,-187 190.79,-151 283.21,-151 283.21,-187"/>
<text text-anchor="middle" x="237" y="-164.8" font-family="Times,serif" font-size="14.00">PagesModule</text>
</g>
<!-- PagesComponent&#45;&gt;PagesModule -->
<g id="edge1" class="edge">
<title>PagesComponent&#45;&gt;PagesModule</title>
<path fill="none" stroke="black" d="M387,-122.11C387,-141.34 387,-169 387,-169 387,-169 293.23,-169 293.23,-169"/>
<polygon fill="black" stroke="black" points="293.23,-165.5 283.23,-169 293.23,-172.5 293.23,-165.5"/>
</g>
<!-- PagesRoutingModule -->
<g id="node3" class="node">
<title>PagesRoutingModule</title>
<polygon fill="#8dd3c7" stroke="black" points="305.82,-122 302.82,-126 281.82,-126 278.82,-122 168.18,-122 168.18,-86 305.82,-86 305.82,-122"/>
<text text-anchor="middle" x="237" y="-99.8" font-family="Times,serif" font-size="14.00">PagesRoutingModule</text>
</g>
<!-- PagesRoutingModule&#45;&gt;PagesModule -->
<g id="edge2" class="edge">
<title>PagesRoutingModule&#45;&gt;PagesModule</title>
<path fill="none" stroke="black" d="M237,-122.11C237,-122.11 237,-140.99 237,-140.99"/>
<polygon fill="black" stroke="black" points="233.5,-140.99 237,-150.99 240.5,-140.99 233.5,-140.99"/>
</g>
<!-- SharedModule -->
<g id="node4" class="node">
<title>SharedModule</title>
<polygon fill="#8dd3c7" stroke="black" points="150.42,-122 147.42,-126 126.42,-126 123.42,-122 51.58,-122 51.58,-86 150.42,-86 150.42,-122"/>
<text text-anchor="middle" x="101" y="-99.8" font-family="Times,serif" font-size="14.00">SharedModule</text>
</g>
<!-- SharedModule&#45;&gt;PagesModule -->
<g id="edge3" class="edge">
<title>SharedModule&#45;&gt;PagesModule</title>
<path fill="none" stroke="black" d="M101,-122.11C101,-141.34 101,-169 101,-169 101,-169 180.58,-169 180.58,-169"/>
<polygon fill="black" stroke="black" points="180.58,-172.5 190.58,-169 180.58,-165.5 180.58,-172.5"/>
</g>
</g>
</svg>
