<svg version="1.1" baseProfile="full" width="281" height="270" viewbox="0 0 281 270" xmlns="http://www.w3.org/2000/svg" xmlns:xlink="http://www.w3.org/1999/xlink" xmlns:ev="http://www.w3.org/2001/xml-events" style="font:bold normal 12pt Helvetica, Helvetica, sans-serif;;stroke-linejoin:round;stroke-linecap:round">
  <title >nomnoml</title>
  <desc >[&lt;reference&gt; first name entry]-&gt; [&lt;input&gt; Enter first name]
[Enter first name]-&gt; [add first name to session data]
[add first name to session data]-&gt; [&lt;reference&gt; last name entry]</desc>
  <rect x="0" y="0" height="270" width="281" style="stroke:none; fill:transparent;"></rect>
  <path d="M141 44.5 L141 64.5 L141 84.5 L141 84.5 " style="stroke:#33322E;fill:none;stroke-dasharray:none;stroke-width:3;"></path>
  <path d="M135.7 71.2 L141 77.8 L146.3 71.2 L141 84.5 Z" style="stroke:#33322E;fill:#33322E;stroke-dasharray:none;stroke-width:3;"></path>
  <path d="M141 115.5 L141 135.5 L141 155.5 L141 155.5 " style="stroke:#33322E;fill:none;stroke-dasharray:none;stroke-width:3;"></path>
  <path d="M135.7 142.2 L141 148.8 L146.3 142.2 L141 155.5 Z" style="stroke:#33322E;fill:#33322E;stroke-dasharray:none;stroke-width:3;"></path>
  <path d="M141 186.5 L141 206.5 L141 226.5 L141 226.5 " style="stroke:#33322E;fill:none;stroke-dasharray:none;stroke-width:3;"></path>
  <path d="M135.7 213.2 L141 219.8 L146.3 213.2 L141 226.5 Z" style="stroke:#33322E;fill:#33322E;stroke-dasharray:none;stroke-width:3;"></path>
  <rect x="71.5" y="13.5" height="31" width="139" data-name="first name entry" style="stroke:#33322E;fill:#eee8d5;stroke-dasharray:6 6;stroke-width:3;"></rect>
  <text x="141" y="35" style="fill: #33322E;font:normal  12pt Helvetica, Helvetica, sans-serif;text-anchor: middle;" data-name="first name entry">first name entry</text>
  <path d="M78.5 84.5 L211.5 84.5 L203.5 115.5 L70.5 115.5 Z" data-name="Enter first name" style="stroke:#33322E;fill:#eee8d5;stroke-dasharray:none;stroke-width:3;"></path>
  <text x="141" y="106" style="fill: #33322E;font:normal  12pt Helvetica, Helvetica, sans-serif;text-anchor: middle;" data-name="Enter first name">Enter first name</text>
  <rect x="13.5" y="155.5" height="31" width="255" data-name="add first name to session data" style="stroke:#33322E;fill:#eee8d5;stroke-dasharray:none;stroke-width:3;"></rect>
  <text x="141" y="177" style="fill: #33322E;font:bold  12pt Helvetica, Helvetica, sans-serif;text-anchor: middle;" data-name="add first name to session data">add first name to session data</text>
  <rect x="72.5" y="226.5" height="31" width="138" data-name="last name entry" style="stroke:#33322E;fill:#eee8d5;stroke-dasharray:6 6;stroke-width:3;"></rect>
  <text x="141.5" y="248" style="fill: #33322E;font:normal  12pt Helvetica, Helvetica, sans-serif;text-anchor: middle;" data-name="last name entry">last name entry</text>
</svg>