<svg version="1.1" baseProfile="full" width="704.625" height="529.5" viewbox="0 0 704.625 529.5" xmlns="http://www.w3.org/2000/svg" xmlns:xlink="http://www.w3.org/1999/xlink" xmlns:ev="http://www.w3.org/2001/xml-events" style="font:bold normal 12pt Helvetica, Helvetica, sans-serif;;stroke-linejoin:round;stroke-linecap:round">
  <title >nomnoml</title>
  <desc >[&lt;reference&gt; gender entry]-&gt; [&lt;input&gt; Enter your gender]
[Enter your gender]-&gt; [add gender to session data]
[add gender to session data]-&gt; [&lt;choice&gt; has empty name]
[has empty name]-&gt; yes [&lt;reference&gt; first name entry]
[has empty name]-&gt; no [&lt;choice&gt; has empty location]
[has empty location]-&gt; yes [&lt;reference&gt; location entry]
[has empty location]-&gt; no [&lt;choice&gt; has empty bio]
[has empty bio]-&gt; yes [&lt;reference&gt; change business prompt]
[has empty bio]-&gt; no [&lt;reference&gt; gender change pin authorization]</desc>
  <rect x="0" y="0" height="529.5" width="704.625" style="stroke:none; fill:transparent;"></rect>
  <path d="M199.6 44.5 L199.6 64.5 L199.6 84.5 L199.6 84.5 " style="stroke:#33322E;fill:none;stroke-dasharray:none;stroke-width:3;"></path>
  <path d="M194.3 71.2 L199.6 77.8 L205 71.2 L199.6 84.5 Z" style="stroke:#33322E;fill:#33322E;stroke-dasharray:none;stroke-width:3;"></path>
  <path d="M199.6 115.5 L199.6 135.5 L199.6 155.5 L199.6 155.5 " style="stroke:#33322E;fill:none;stroke-dasharray:none;stroke-width:3;"></path>
  <path d="M194.3 142.2 L199.6 148.8 L205 142.2 L199.6 155.5 Z" style="stroke:#33322E;fill:#33322E;stroke-dasharray:none;stroke-width:3;"></path>
  <path d="M199.6 186.5 L199.6 206.5 L199.6 226.5 L199.6 226.5 " style="stroke:#33322E;fill:none;stroke-dasharray:none;stroke-width:3;"></path>
  <path d="M194.3 213.2 L199.6 219.8 L205 213.2 L199.6 226.5 Z" style="stroke:#33322E;fill:#33322E;stroke-dasharray:none;stroke-width:3;"></path>
  <text x="47" y="312.8" style="fill: #33322E;font:normal  12pt Helvetica, Helvetica, sans-serif;">yes</text>
  <path d="M136.9 273 L83 293 L83 320.8 L83 320.8 " style="stroke:#33322E;fill:none;stroke-dasharray:none;stroke-width:3;"></path>
  <path d="M77.7 307.4 L83 314.1 L88.3 307.4 L83 320.8 Z" style="stroke:#33322E;fill:#33322E;stroke-dasharray:none;stroke-width:3;"></path>
  <text x="324.3" y="305" style="fill: #33322E;font:normal  12pt Helvetica, Helvetica, sans-serif;">no</text>
  <path d="M262.3 273 L316.3 293 L316.3 313 L316.3 313 " style="stroke:#33322E;fill:none;stroke-dasharray:none;stroke-width:3;"></path>
  <path d="M310.9 299.7 L316.3 306.3 L321.6 299.7 L316.3 313 Z" style="stroke:#33322E;fill:#33322E;stroke-dasharray:none;stroke-width:3;"></path>
  <text x="181.9" y="399.3" style="fill: #33322E;font:normal  12pt Helvetica, Helvetica, sans-serif;">yes</text>
  <path d="M263.4 359.5 L217.9 379.5 L217.9 407.3 L217.9 407.3 " style="stroke:#33322E;fill:none;stroke-dasharray:none;stroke-width:3;"></path>
  <path d="M212.5 393.9 L217.9 400.6 L223.2 393.9 L217.9 407.3 Z" style="stroke:#33322E;fill:#33322E;stroke-dasharray:none;stroke-width:3;"></path>
  <text x="422.6" y="391.5" style="fill: #33322E;font:normal  12pt Helvetica, Helvetica, sans-serif;">no</text>
  <path d="M369.1 359.5 L414.6 379.5 L414.6 399.5 L414.6 399.5 " style="stroke:#33322E;fill:none;stroke-dasharray:none;stroke-width:3;"></path>
  <path d="M409.3 386.2 L414.6 392.8 L420 386.2 L414.6 399.5 Z" style="stroke:#33322E;fill:#33322E;stroke-dasharray:none;stroke-width:3;"></path>
  <text x="237.6" y="478" style="fill: #33322E;font:normal  12pt Helvetica, Helvetica, sans-serif;">yes</text>
  <path d="M338.8 446 L273.6 466 L273.6 486 L273.6 486 " style="stroke:#33322E;fill:none;stroke-dasharray:none;stroke-width:3;"></path>
  <path d="M268.3 472.7 L273.6 479.3 L279 472.7 L273.6 486 Z" style="stroke:#33322E;fill:#33322E;stroke-dasharray:none;stroke-width:3;"></path>
  <text x="563.6" y="478" style="fill: #33322E;font:normal  12pt Helvetica, Helvetica, sans-serif;">no</text>
  <path d="M490.4 446 L555.6 466 L555.6 486 L555.6 486 " style="stroke:#33322E;fill:none;stroke-dasharray:none;stroke-width:3;"></path>
  <path d="M550.3 472.7 L555.6 479.3 L561 472.7 L555.6 486 Z" style="stroke:#33322E;fill:#33322E;stroke-dasharray:none;stroke-width:3;"></path>
  <rect x="141.5" y="13.5" height="31" width="117" data-name="gender entry" style="stroke:#33322E;fill:#eee8d5;stroke-dasharray:6 6;stroke-width:3;"></rect>
  <text x="200" y="35" style="fill: #33322E;font:normal  12pt Helvetica, Helvetica, sans-serif;text-anchor: middle;" data-name="gender entry">gender entry</text>
  <path d="M128.5 84.5 L279.5 84.5 L271.5 115.5 L120.5 115.5 Z" data-name="Enter your gender" style="stroke:#33322E;fill:#eee8d5;stroke-dasharray:none;stroke-width:3;"></path>
  <text x="200" y="106" style="fill: #33322E;font:normal  12pt Helvetica, Helvetica, sans-serif;text-anchor: middle;" data-name="Enter your gender">Enter your gender</text>
  <rect x="83.5" y="155.5" height="31" width="233" data-name="add gender to session data" style="stroke:#33322E;fill:#eee8d5;stroke-dasharray:none;stroke-width:3;"></rect>
  <text x="200" y="177" style="fill: #33322E;font:bold  12pt Helvetica, Helvetica, sans-serif;text-anchor: middle;" data-name="add gender to session data">add gender to session data</text>
  <path d="M199.6 226.5 L310 249.8 L199.6 273 L89.5 249.8 Z" data-name="has empty name" style="stroke:#33322E;fill:#eee8d5;stroke-dasharray:none;stroke-width:3;"></path>
  <text x="199.8" y="255.8" style="fill: #33322E;font:normal  12pt Helvetica, Helvetica, sans-serif;text-anchor: middle;" data-name="has empty name">has empty name</text>
  <rect x="13.5" y="320.5" height="31" width="139" data-name="first name entry" style="stroke:#33322E;fill:#eee8d5;stroke-dasharray:6 6;stroke-width:3;"></rect>
  <text x="83" y="342" style="fill: #33322E;font:normal  12pt Helvetica, Helvetica, sans-serif;text-anchor: middle;" data-name="first name entry">first name entry</text>
  <path d="M316.3 313.5 L440 336.3 L316.3 360 L192.5 336.3 Z" data-name="has empty location" style="stroke:#33322E;fill:#eee8d5;stroke-dasharray:none;stroke-width:3;"></path>
  <text x="316.3" y="342.8" style="fill: #33322E;font:normal  12pt Helvetica, Helvetica, sans-serif;text-anchor: middle;" data-name="has empty location">has empty location</text>
  <rect x="156.5" y="407.5" height="31" width="123" data-name="location entry" style="stroke:#33322E;fill:#eee8d5;stroke-dasharray:6 6;stroke-width:3;"></rect>
  <text x="218" y="429" style="fill: #33322E;font:normal  12pt Helvetica, Helvetica, sans-serif;text-anchor: middle;" data-name="location entry">location entry</text>
  <path d="M414.6 399.5 L510 422.8 L414.6 446 L319.5 422.8 Z" data-name="has empty bio" style="stroke:#33322E;fill:#eee8d5;stroke-dasharray:none;stroke-width:3;"></path>
  <text x="414.8" y="428.8" style="fill: #33322E;font:normal  12pt Helvetica, Helvetica, sans-serif;text-anchor: middle;" data-name="has empty bio">has empty bio</text>
  <rect x="168.5" y="486.5" height="31" width="211" data-name="change business prompt" style="stroke:#33322E;fill:#eee8d5;stroke-dasharray:6 6;stroke-width:3;"></rect>
  <text x="274" y="508" style="fill: #33322E;font:normal  12pt Helvetica, Helvetica, sans-serif;text-anchor: middle;" data-name="change business prompt">change business prompt</text>
  <rect x="419.5" y="486.5" height="31" width="273" data-name="gender change pin authorization" style="stroke:#33322E;fill:#eee8d5;stroke-dasharray:6 6;stroke-width:3;"></rect>
  <text x="556" y="508" style="fill: #33322E;font:normal  12pt Helvetica, Helvetica, sans-serif;text-anchor: middle;" data-name="gender change pin authorization">gender change pin authorization</text>
</svg>