<svg version="1.1" baseProfile="full" width="673.625" height="529.5" viewbox="0 0 673.625 529.5" xmlns="http://www.w3.org/2000/svg" xmlns:xlink="http://www.w3.org/1999/xlink" xmlns:ev="http://www.w3.org/2001/xml-events" style="font:bold normal 12pt Helvetica, Helvetica, sans-serif;;stroke-linejoin:round;stroke-linecap:round">
  <title >nomnoml</title>
  <desc >[&lt;reference&gt; last name entry]-&gt; [&lt;input&gt; Enter last name]
[Enter last name]-&gt; [add last name to session data]
[add last name to session data]-&gt; [&lt;choice&gt; has empty gender]
[has empty gender]-&gt; yes [&lt;reference&gt; gender entry]
[has empty gender]-&gt; no [&lt;choice&gt;has empty location]
[has empty location]-&gt; yes [&lt;reference&gt; location entry]
[has empty location]-&gt; no [&lt;choice&gt; has empty bio]
[has empty bio]-&gt; yes [&lt;reference&gt; change business prompt]
[has empty bio]-&gt; no [&lt;reference&gt; name change pin authorization]</desc>
  <rect x="0" y="0" height="529.5" width="673.625" style="stroke:none; fill:transparent;"></rect>
  <path d="M183.1 44.5 L183.1 64.5 L183.1 84.5 L183.1 84.5 " style="stroke:#33322E;fill:none;stroke-dasharray:none;stroke-width:3;"></path>
  <path d="M177.8 71.2 L183.1 77.8 L188.5 71.2 L183.1 84.5 Z" style="stroke:#33322E;fill:#33322E;stroke-dasharray:none;stroke-width:3;"></path>
  <path d="M183.1 115.5 L183.1 135.5 L183.1 155.5 L183.1 155.5 " style="stroke:#33322E;fill:none;stroke-dasharray:none;stroke-width:3;"></path>
  <path d="M177.8 142.2 L183.1 148.8 L188.5 142.2 L183.1 155.5 Z" style="stroke:#33322E;fill:#33322E;stroke-dasharray:none;stroke-width:3;"></path>
  <path d="M183.1 186.5 L183.1 206.5 L183.1 226.5 L183.1 226.5 " style="stroke:#33322E;fill:none;stroke-dasharray:none;stroke-width:3;"></path>
  <path d="M177.8 213.2 L183.1 219.8 L188.5 213.2 L183.1 226.5 Z" style="stroke:#33322E;fill:#33322E;stroke-dasharray:none;stroke-width:3;"></path>
  <text x="36" y="312.8" style="fill: #33322E;font:normal  12pt Helvetica, Helvetica, sans-serif;">yes</text>
  <path d="M123.4 273 L72 293 L72 320.8 L72 320.8 " style="stroke:#33322E;fill:none;stroke-dasharray:none;stroke-width:3;"></path>
  <path d="M66.7 307.4 L72 314.1 L77.3 307.4 L72 320.8 Z" style="stroke:#33322E;fill:#33322E;stroke-dasharray:none;stroke-width:3;"></path>
  <text x="302.3" y="305" style="fill: #33322E;font:normal  12pt Helvetica, Helvetica, sans-serif;">no</text>
  <path d="M242.9 273 L294.3 293 L294.3 313 L294.3 313 " style="stroke:#33322E;fill:none;stroke-dasharray:none;stroke-width:3;"></path>
  <path d="M288.9 299.7 L294.3 306.3 L299.6 299.7 L294.3 313 Z" style="stroke:#33322E;fill:#33322E;stroke-dasharray:none;stroke-width:3;"></path>
  <text x="159.9" y="399.3" style="fill: #33322E;font:normal  12pt Helvetica, Helvetica, sans-serif;">yes</text>
  <path d="M241.4 359.5 L195.9 379.5 L195.9 407.3 L195.9 407.3 " style="stroke:#33322E;fill:none;stroke-dasharray:none;stroke-width:3;"></path>
  <path d="M190.5 393.9 L195.9 400.6 L201.2 393.9 L195.9 407.3 Z" style="stroke:#33322E;fill:#33322E;stroke-dasharray:none;stroke-width:3;"></path>
  <text x="400.6" y="391.5" style="fill: #33322E;font:normal  12pt Helvetica, Helvetica, sans-serif;">no</text>
  <path d="M347.1 359.5 L392.6 379.5 L392.6 399.5 L392.6 399.5 " style="stroke:#33322E;fill:none;stroke-dasharray:none;stroke-width:3;"></path>
  <path d="M387.3 386.2 L392.6 392.8 L398 386.2 L392.6 399.5 Z" style="stroke:#33322E;fill:#33322E;stroke-dasharray:none;stroke-width:3;"></path>
  <text x="218.6" y="478" style="fill: #33322E;font:normal  12pt Helvetica, Helvetica, sans-serif;">yes</text>
  <path d="M318.4 446 L254.6 466 L254.6 486 L254.6 486 " style="stroke:#33322E;fill:none;stroke-dasharray:none;stroke-width:3;"></path>
  <path d="M249.3 472.7 L254.6 479.3 L260 472.7 L254.6 486 Z" style="stroke:#33322E;fill:#33322E;stroke-dasharray:none;stroke-width:3;"></path>
  <text x="538.6" y="478" style="fill: #33322E;font:normal  12pt Helvetica, Helvetica, sans-serif;">no</text>
  <path d="M466.8 446 L530.6 466 L530.6 486 L530.6 486 " style="stroke:#33322E;fill:none;stroke-dasharray:none;stroke-width:3;"></path>
  <path d="M525.3 472.7 L530.6 479.3 L536 472.7 L530.6 486 Z" style="stroke:#33322E;fill:#33322E;stroke-dasharray:none;stroke-width:3;"></path>
  <rect x="114.5" y="13.5" height="31" width="138" data-name="last name entry" style="stroke:#33322E;fill:#eee8d5;stroke-dasharray:6 6;stroke-width:3;"></rect>
  <text x="183.5" y="35" style="fill: #33322E;font:normal  12pt Helvetica, Helvetica, sans-serif;text-anchor: middle;" data-name="last name entry">last name entry</text>
  <path d="M121.5 84.5 L253.5 84.5 L245.5 115.5 L113.5 115.5 Z" data-name="Enter last name" style="stroke:#33322E;fill:#eee8d5;stroke-dasharray:none;stroke-width:3;"></path>
  <text x="183.5" y="106" style="fill: #33322E;font:normal  12pt Helvetica, Helvetica, sans-serif;text-anchor: middle;" data-name="Enter last name">Enter last name</text>
  <rect x="56.5" y="155.5" height="31" width="254" data-name="add last name to session data" style="stroke:#33322E;fill:#eee8d5;stroke-dasharray:none;stroke-width:3;"></rect>
  <text x="183.5" y="177" style="fill: #33322E;font:bold  12pt Helvetica, Helvetica, sans-serif;text-anchor: middle;" data-name="add last name to session data">add last name to session data</text>
  <path d="M183.1 226.5 L302 249.8 L183.1 273 L63.5 249.8 Z" data-name="has empty gender" style="stroke:#33322E;fill:#eee8d5;stroke-dasharray:none;stroke-width:3;"></path>
  <text x="182.8" y="255.8" style="fill: #33322E;font:normal  12pt Helvetica, Helvetica, sans-serif;text-anchor: middle;" data-name="has empty gender">has empty gender</text>
  <rect x="13.5" y="320.5" height="31" width="117" data-name="gender entry" style="stroke:#33322E;fill:#eee8d5;stroke-dasharray:6 6;stroke-width:3;"></rect>
  <text x="72" y="342" style="fill: #33322E;font:normal  12pt Helvetica, Helvetica, sans-serif;text-anchor: middle;" data-name="gender entry">gender entry</text>
  <path d="M294.3 313.5 L418 336.3 L294.3 360 L170.5 336.3 Z" data-name="has empty location" style="stroke:#33322E;fill:#eee8d5;stroke-dasharray:none;stroke-width:3;"></path>
  <text x="294.3" y="342.8" style="fill: #33322E;font:normal  12pt Helvetica, Helvetica, sans-serif;text-anchor: middle;" data-name="has empty location">has empty location</text>
  <rect x="134.5" y="407.5" height="31" width="123" data-name="location entry" style="stroke:#33322E;fill:#eee8d5;stroke-dasharray:6 6;stroke-width:3;"></rect>
  <text x="196" y="429" style="fill: #33322E;font:normal  12pt Helvetica, Helvetica, sans-serif;text-anchor: middle;" data-name="location entry">location entry</text>
  <path d="M392.6 399.5 L488 422.8 L392.6 446 L297.5 422.8 Z" data-name="has empty bio" style="stroke:#33322E;fill:#eee8d5;stroke-dasharray:none;stroke-width:3;"></path>
  <text x="392.8" y="428.8" style="fill: #33322E;font:normal  12pt Helvetica, Helvetica, sans-serif;text-anchor: middle;" data-name="has empty bio">has empty bio</text>
  <rect x="149.5" y="486.5" height="31" width="211" data-name="change business prompt" style="stroke:#33322E;fill:#eee8d5;stroke-dasharray:6 6;stroke-width:3;"></rect>
  <text x="255" y="508" style="fill: #33322E;font:normal  12pt Helvetica, Helvetica, sans-serif;text-anchor: middle;" data-name="change business prompt">change business prompt</text>
  <rect x="400.5" y="486.5" height="31" width="261" data-name="name change pin authorization" style="stroke:#33322E;fill:#eee8d5;stroke-dasharray:6 6;stroke-width:3;"></rect>
  <text x="531" y="508" style="fill: #33322E;font:normal  12pt Helvetica, Helvetica, sans-serif;text-anchor: middle;" data-name="name change pin authorization">name change pin authorization</text>
</svg>