<svg version="1.1" baseProfile="full" width="651" height="372" viewbox="0 0 651 372" xmlns="http://www.w3.org/2000/svg" xmlns:xlink="http://www.w3.org/1999/xlink" xmlns:ev="http://www.w3.org/2001/xml-events" style="font:bold normal 12pt Helvetica, Helvetica, sans-serif;;stroke-linejoin:round;stroke-linecap:round">
  <title >nomnoml</title>
  <desc >[&lt;reference&gt; opt out of market place pin authorization]-&gt; [&lt;input&gt;  Please enter your PIN]
[Please enter your PIN]-&gt; [&lt;choice&gt; is authorized]
[is authorized]-&gt; yes [change opt in market status]
[change opt in market status]-&gt; [&lt;reference&gt; complete]
[is authorized]-&gt; no [&lt;choice&gt; is blocked]
[is blocked]-&gt; yes [&lt;label&gt; exit pin blocked]
[is blocked]-&gt; no [increase failed attempts]
[increase failed attempts]-&gt; [Please enter your PIN]</desc>
  <rect x="0" y="0" height="372" width="651" style="stroke:none; fill:transparent;"></rect>
  <path d="M314.8 44.5 L314.8 64.5 L314.8 84.5 L314.8 84.5 " style="stroke:#33322E;fill:none;stroke-dasharray:none;stroke-width:3;"></path>
  <path d="M309.4 71.2 L314.8 77.8 L320.1 71.2 L314.8 84.5 Z" style="stroke:#33322E;fill:#33322E;stroke-dasharray:none;stroke-width:3;"></path>
  <path d="M285 115.5 L246.5 135.5 L246.5 155.5 L246.5 155.5 " style="stroke:#33322E;fill:none;stroke-dasharray:none;stroke-width:3;"></path>
  <path d="M241.2 142.2 L246.5 148.8 L251.8 142.2 L246.5 155.5 Z" style="stroke:#33322E;fill:#33322E;stroke-dasharray:none;stroke-width:3;"></path>
  <text x="95.5" y="241.8" style="fill: #33322E;font:normal  12pt Helvetica, Helvetica, sans-serif;">yes</text>
  <path d="M184.7 202 L131.5 222 L131.5 249.8 L131.5 249.8 " style="stroke:#33322E;fill:none;stroke-dasharray:none;stroke-width:3;"></path>
  <path d="M126.2 236.4 L131.5 243.1 L136.8 236.4 L131.5 249.8 Z" style="stroke:#33322E;fill:#33322E;stroke-dasharray:none;stroke-width:3;"></path>
  <path d="M131.5 280.8 L131.5 308.5 L131.5 328.5 L131.5 328.5 " style="stroke:#33322E;fill:none;stroke-dasharray:none;stroke-width:3;"></path>
  <path d="M126.2 315.2 L131.5 321.8 L136.8 315.2 L131.5 328.5 Z" style="stroke:#33322E;fill:#33322E;stroke-dasharray:none;stroke-width:3;"></path>
  <text x="369.5" y="234" style="fill: #33322E;font:normal  12pt Helvetica, Helvetica, sans-serif;">no</text>
  <path d="M308.3 202 L361.5 222 L361.5 242 L361.5 242 " style="stroke:#33322E;fill:none;stroke-dasharray:none;stroke-width:3;"></path>
  <path d="M356.2 228.7 L361.5 235.3 L366.8 228.7 L361.5 242 Z" style="stroke:#33322E;fill:#33322E;stroke-dasharray:none;stroke-width:3;"></path>
  <text x="287.5" y="320.5" style="fill: #33322E;font:normal  12pt Helvetica, Helvetica, sans-serif;">yes</text>
  <path d="M341.1 288.5 L323.5 308.5 L323.5 328.5 L323.5 328.5 " style="stroke:#33322E;fill:none;stroke-dasharray:none;stroke-width:3;"></path>
  <path d="M318.2 315.2 L323.5 321.8 L328.8 315.2 L323.5 328.5 Z" style="stroke:#33322E;fill:#33322E;stroke-dasharray:none;stroke-width:3;"></path>
  <text x="514.2" y="320.5" style="fill: #33322E;font:normal  12pt Helvetica, Helvetica, sans-serif;">no</text>
  <path d="M418.6 288.5 L467.8 308.5 L506.2 328.5 L506.2 328.5 " style="stroke:#33322E;fill:none;stroke-dasharray:none;stroke-width:3;"></path>
  <path d="M491.9 327.1 L500.3 325.4 L496.8 317.6 L506.2 328.5 Z" style="stroke:#33322E;fill:#33322E;stroke-dasharray:none;stroke-width:3;"></path>
  <path d="M544.7 328.5 L556 308.5 L556 265.3 L556 265.3 L556 222 L556 222 L556 178.8 L556 178.8 L556 135.5 L556 135.5 L409.3 113.9 L409.3 113.9 " style="stroke:#33322E;fill:none;stroke-dasharray:none;stroke-width:3;"></path>
  <path d="M423.2 110.6 L415.8 114.9 L421.7 121.1 L409.3 113.9 Z" style="stroke:#33322E;fill:#33322E;stroke-dasharray:none;stroke-width:3;"></path>
  <rect x="147.5" y="13.5" height="31" width="335" data-name="opt out of market place pin authorization" style="stroke:#33322E;fill:#eee8d5;stroke-dasharray:6 6;stroke-width:3;"></rect>
  <text x="315" y="35" style="fill: #33322E;font:normal  12pt Helvetica, Helvetica, sans-serif;text-anchor: middle;" data-name="opt out of market place pin authorization">opt out of market place pin authorization</text>
  <path d="M228.5 84.5 L409.5 84.5 L401.5 115.5 L220.5 115.5 Z" data-name="Please enter your PIN" style="stroke:#33322E;fill:#eee8d5;stroke-dasharray:none;stroke-width:3;"></path>
  <text x="315" y="106" style="fill: #33322E;font:normal  12pt Helvetica, Helvetica, sans-serif;text-anchor: middle;" data-name="Please enter your PIN">Please enter your PIN</text>
  <path d="M246.5 155.5 L335.5 178.8 L246.5 202 L158.5 178.8 Z" data-name="is authorized" style="stroke:#33322E;fill:#eee8d5;stroke-dasharray:none;stroke-width:3;"></path>
  <text x="247" y="184.8" style="fill: #33322E;font:normal  12pt Helvetica, Helvetica, sans-serif;text-anchor: middle;" data-name="is authorized">is authorized</text>
  <rect x="13.5" y="249.5" height="31" width="236" data-name="change opt in market status" style="stroke:#33322E;fill:#eee8d5;stroke-dasharray:none;stroke-width:3;"></rect>
  <text x="131.5" y="271" style="fill: #33322E;font:bold  12pt Helvetica, Helvetica, sans-serif;text-anchor: middle;" data-name="change opt in market status">change opt in market status</text>
  <rect x="87.5" y="328.5" height="31" width="88" data-name="complete" style="stroke:#33322E;fill:#eee8d5;stroke-dasharray:6 6;stroke-width:3;"></rect>
  <text x="131.5" y="350" style="fill: #33322E;font:normal  12pt Helvetica, Helvetica, sans-serif;text-anchor: middle;" data-name="complete">complete</text>
  <path d="M361.5 242.5 L433.5 265.3 L361.5 289 L289.5 265.3 Z" data-name="is blocked" style="stroke:#33322E;fill:#eee8d5;stroke-dasharray:none;stroke-width:3;"></path>
  <text x="361.5" y="271.8" style="fill: #33322E;font:normal  12pt Helvetica, Helvetica, sans-serif;text-anchor: middle;" data-name="is blocked">is blocked</text>
  <text x="261.5" y="350" style="fill: #33322E;font:normal  12pt Helvetica, Helvetica, sans-serif;" data-name="exit pin blocked">exit pin blocked</text>
  <rect x="433.5" y="328.5" height="31" width="205" data-name="increase failed attempts" style="stroke:#33322E;fill:#eee8d5;stroke-dasharray:none;stroke-width:3;"></rect>
  <text x="536" y="350" style="fill: #33322E;font:bold  12pt Helvetica, Helvetica, sans-serif;text-anchor: middle;" data-name="increase failed attempts">increase failed attempts</text>
</svg>