<svg version="1.1" baseProfile="full" width="819.5" height="631.5" viewbox="0 0 819.5 631.5" xmlns="http://www.w3.org/2000/svg" xmlns:xlink="http://www.w3.org/1999/xlink" xmlns:ev="http://www.w3.org/2001/xml-events" style="font:bold normal 12pt Helvetica, Helvetica, sans-serif;;stroke-linejoin:round;stroke-linecap:round">
  <title >nomnoml</title>
  <desc >[&lt;reference&gt; start menu]-&gt; [&lt;input&gt; user input]
[user input]-&gt; [&lt;choice&gt; 1. Send]
[1. Send]-&gt; yes [&lt;reference&gt; send enter recipient]
[1. Send]-&gt; no [&lt;choice&gt; 2. My Account]
[2. My Account]-&gt; yes [&lt;reference&gt; account management]
[2. My Account]-&gt; no [&lt;choice&gt; 3. Market Place]
[3. Market Place]-&gt; yes [&lt;reference&gt; directory listing]
[3. Market Place]-&gt; no [&lt;choice&gt; 4. Exchange]
[4. Exchange]-&gt; yes [&lt;reference&gt; exchange token]
[4. Exchange]-&gt; no [&lt;choice&gt; 5. Help]
[5. Help]-&gt; yes [&lt;reference&gt; help]
[5. Help]-&gt; no [&lt;reference&gt; exit invalid menu option]</desc>
  <rect x="0" y="0" height="631.5" width="819.5" style="stroke:none; fill:transparent;"></rect>
  <path d="M212 44.5 L212 64.5 L212 84.5 L212 84.5 " style="stroke:#33322E;fill:none;stroke-dasharray:none;stroke-width:3;"></path>
  <path d="M206.7 71.2 L212 77.8 L217.3 71.2 L212 84.5 Z" style="stroke:#33322E;fill:#33322E;stroke-dasharray:none;stroke-width:3;"></path>
  <path d="M212 115.5 L212 135.5 L212 155.5 L212 155.5 " style="stroke:#33322E;fill:none;stroke-dasharray:none;stroke-width:3;"></path>
  <path d="M206.7 142.2 L212 148.8 L217.3 142.2 L212 155.5 Z" style="stroke:#33322E;fill:#33322E;stroke-dasharray:none;stroke-width:3;"></path>
  <text x="64.5" y="241.8" style="fill: #33322E;font:normal  12pt Helvetica, Helvetica, sans-serif;">yes</text>
  <path d="M154.3 201.2 L100.5 222 L100.5 249.8 L100.5 249.8 " style="stroke:#33322E;fill:none;stroke-dasharray:none;stroke-width:3;"></path>
  <path d="M95.2 236.4 L100.5 243.1 L105.8 236.4 L100.5 249.8 Z" style="stroke:#33322E;fill:#33322E;stroke-dasharray:none;stroke-width:3;"></path>
  <text x="331.5" y="234" style="fill: #33322E;font:normal  12pt Helvetica, Helvetica, sans-serif;">no</text>
  <path d="M269.8 201.2 L323.5 222 L323.5 242 L323.5 242 " style="stroke:#33322E;fill:none;stroke-dasharray:none;stroke-width:3;"></path>
  <path d="M318.2 228.7 L323.5 235.3 L328.8 228.7 L323.5 242 Z" style="stroke:#33322E;fill:#33322E;stroke-dasharray:none;stroke-width:3;"></path>
  <text x="168.6" y="328.3" style="fill: #33322E;font:normal  12pt Helvetica, Helvetica, sans-serif;">yes</text>
  <path d="M259.6 288.5 L204.6 308.5 L204.6 336.3 L204.6 336.3 " style="stroke:#33322E;fill:none;stroke-dasharray:none;stroke-width:3;"></path>
  <path d="M199.3 322.9 L204.6 329.6 L210 322.9 L204.6 336.3 Z" style="stroke:#33322E;fill:#33322E;stroke-dasharray:none;stroke-width:3;"></path>
  <text x="450.4" y="320.5" style="fill: #33322E;font:normal  12pt Helvetica, Helvetica, sans-serif;">no</text>
  <path d="M387.4 288.5 L442.4 308.5 L442.4 328.5 L442.4 328.5 " style="stroke:#33322E;fill:none;stroke-dasharray:none;stroke-width:3;"></path>
  <path d="M437 315.2 L442.4 321.8 L447.7 315.2 L442.4 328.5 Z" style="stroke:#33322E;fill:#33322E;stroke-dasharray:none;stroke-width:3;"></path>
  <text x="309.3" y="414.8" style="fill: #33322E;font:normal  12pt Helvetica, Helvetica, sans-serif;">yes</text>
  <path d="M390.2 375 L345.3 395 L345.3 422.8 L345.3 422.8 " style="stroke:#33322E;fill:none;stroke-dasharray:none;stroke-width:3;"></path>
  <path d="M339.9 409.4 L345.3 416.1 L350.6 409.4 L345.3 422.8 Z" style="stroke:#33322E;fill:#33322E;stroke-dasharray:none;stroke-width:3;"></path>
  <text x="547.5" y="407" style="fill: #33322E;font:normal  12pt Helvetica, Helvetica, sans-serif;">no</text>
  <path d="M494.6 375 L539.5 395 L539.5 415 L539.5 415 " style="stroke:#33322E;fill:none;stroke-dasharray:none;stroke-width:3;"></path>
  <path d="M534.2 401.7 L539.5 408.3 L544.8 401.7 L539.5 415 Z" style="stroke:#33322E;fill:#33322E;stroke-dasharray:none;stroke-width:3;"></path>
  <text x="420.8" y="501.3" style="fill: #33322E;font:normal  12pt Helvetica, Helvetica, sans-serif;">yes</text>
  <path d="M495 461.5 L456.8 481.5 L456.8 509.3 L456.8 509.3 " style="stroke:#33322E;fill:none;stroke-dasharray:none;stroke-width:3;"></path>
  <path d="M451.4 495.9 L456.8 502.6 L462.1 495.9 L456.8 509.3 Z" style="stroke:#33322E;fill:#33322E;stroke-dasharray:none;stroke-width:3;"></path>
  <text x="630.3" y="493.5" style="fill: #33322E;font:normal  12pt Helvetica, Helvetica, sans-serif;">no</text>
  <path d="M584 461.5 L622.3 481.5 L622.3 501.5 L622.3 501.5 " style="stroke:#33322E;fill:none;stroke-dasharray:none;stroke-width:3;"></path>
  <path d="M616.9 488.2 L622.3 494.8 L627.6 488.2 L622.3 501.5 Z" style="stroke:#33322E;fill:#33322E;stroke-dasharray:none;stroke-width:3;"></path>
  <text x="503" y="580" style="fill: #33322E;font:normal  12pt Helvetica, Helvetica, sans-serif;">yes</text>
  <path d="M577.5 548 L539 568 L539 588 L539 588 " style="stroke:#33322E;fill:none;stroke-dasharray:none;stroke-width:3;"></path>
  <path d="M533.7 574.7 L539 581.3 L544.3 574.7 L539 588 Z" style="stroke:#33322E;fill:#33322E;stroke-dasharray:none;stroke-width:3;"></path>
  <text x="713.5" y="580" style="fill: #33322E;font:normal  12pt Helvetica, Helvetica, sans-serif;">no</text>
  <path d="M667 548 L705.5 568 L705.5 588 L705.5 588 " style="stroke:#33322E;fill:none;stroke-dasharray:none;stroke-width:3;"></path>
  <path d="M700.2 574.7 L705.5 581.3 L710.8 574.7 L705.5 588 Z" style="stroke:#33322E;fill:#33322E;stroke-dasharray:none;stroke-width:3;"></path>
  <rect x="162.5" y="13.5" height="31" width="100" data-name="start menu" style="stroke:#33322E;fill:#eee8d5;stroke-dasharray:6 6;stroke-width:3;"></rect>
  <text x="212.5" y="35" style="fill: #33322E;font:normal  12pt Helvetica, Helvetica, sans-serif;text-anchor: middle;" data-name="start menu">start menu</text>
  <path d="M172.5 84.5 L259.5 84.5 L251.5 115.5 L164.5 115.5 Z" data-name="user input" style="stroke:#33322E;fill:#eee8d5;stroke-dasharray:none;stroke-width:3;"></path>
  <text x="212" y="106" style="fill: #33322E;font:normal  12pt Helvetica, Helvetica, sans-serif;text-anchor: middle;" data-name="user input">user input</text>
  <path d="M212 155.5 L270 178.8 L212 202 L154.5 178.8 Z" data-name="1. Send" style="stroke:#33322E;fill:#eee8d5;stroke-dasharray:none;stroke-width:3;"></path>
  <text x="212.3" y="184.8" style="fill: #33322E;font:normal  12pt Helvetica, Helvetica, sans-serif;text-anchor: middle;" data-name="1. Send">1. Send</text>
  <rect x="13.5" y="249.5" height="31" width="174" data-name="send enter recipient" style="stroke:#33322E;fill:#eee8d5;stroke-dasharray:6 6;stroke-width:3;"></rect>
  <text x="100.5" y="271" style="fill: #33322E;font:normal  12pt Helvetica, Helvetica, sans-serif;text-anchor: middle;" data-name="send enter recipient">send enter recipient</text>
  <path d="M323.5 242.5 L419.5 265.3 L323.5 289 L227.5 265.3 Z" data-name="2. My Account" style="stroke:#33322E;fill:#eee8d5;stroke-dasharray:none;stroke-width:3;"></path>
  <text x="323.5" y="271.8" style="fill: #33322E;font:normal  12pt Helvetica, Helvetica, sans-serif;text-anchor: middle;" data-name="2. My Account">2. My Account</text>
  <rect x="111.5" y="336.5" height="31" width="187" data-name="account management" style="stroke:#33322E;fill:#eee8d5;stroke-dasharray:6 6;stroke-width:3;"></rect>
  <text x="205" y="358" style="fill: #33322E;font:normal  12pt Helvetica, Helvetica, sans-serif;text-anchor: middle;" data-name="account management">account management</text>
  <path d="M442.4 328.5 L547 351.8 L442.4 375 L338.5 351.8 Z" data-name="3. Market Place" style="stroke:#33322E;fill:#eee8d5;stroke-dasharray:none;stroke-width:3;"></path>
  <text x="442.8" y="357.8" style="fill: #33322E;font:normal  12pt Helvetica, Helvetica, sans-serif;text-anchor: middle;" data-name="3. Market Place">3. Market Place</text>
  <rect x="277.5" y="422.5" height="31" width="136" data-name="directory listing" style="stroke:#33322E;fill:#eee8d5;stroke-dasharray:6 6;stroke-width:3;"></rect>
  <text x="345.5" y="444" style="fill: #33322E;font:normal  12pt Helvetica, Helvetica, sans-serif;text-anchor: middle;" data-name="directory listing">directory listing</text>
  <path d="M539.5 415.5 L626 438.3 L539.5 462 L453.5 438.3 Z" data-name="4. Exchange" style="stroke:#33322E;fill:#eee8d5;stroke-dasharray:none;stroke-width:3;"></path>
  <text x="539.8" y="444.8" style="fill: #33322E;font:normal  12pt Helvetica, Helvetica, sans-serif;text-anchor: middle;" data-name="4. Exchange">4. Exchange</text>
  <rect x="385.5" y="509.5" height="31" width="143" data-name="exchange token" style="stroke:#33322E;fill:#eee8d5;stroke-dasharray:6 6;stroke-width:3;"></rect>
  <text x="457" y="531" style="fill: #33322E;font:normal  12pt Helvetica, Helvetica, sans-serif;text-anchor: middle;" data-name="exchange token">exchange token</text>
  <path d="M622.3 501.5 L676.5 524.8 L622.3 548 L568.5 524.8 Z" data-name="5. Help" style="stroke:#33322E;fill:#eee8d5;stroke-dasharray:none;stroke-width:3;"></path>
  <text x="622.5" y="530.8" style="fill: #33322E;font:normal  12pt Helvetica, Helvetica, sans-serif;text-anchor: middle;" data-name="5. Help">5. Help</text>
  <rect x="514.5" y="588.5" height="31" width="50" data-name="help" style="stroke:#33322E;fill:#eee8d5;stroke-dasharray:6 6;stroke-width:3;"></rect>
  <text x="539.5" y="610" style="fill: #33322E;font:normal  12pt Helvetica, Helvetica, sans-serif;text-anchor: middle;" data-name="help">help</text>
  <rect x="604.5" y="588.5" height="31" width="203" data-name="exit invalid menu option" style="stroke:#33322E;fill:#eee8d5;stroke-dasharray:6 6;stroke-width:3;"></rect>
  <text x="706" y="610" style="fill: #33322E;font:normal  12pt Helvetica, Helvetica, sans-serif;text-anchor: middle;" data-name="exit invalid menu option">exit invalid menu option</text>
</svg>