<svg version="1.1" baseProfile="full" width="405.5" height="386.5" viewbox="0 0 405.5 386.5" xmlns="http://www.w3.org/2000/svg" xmlns:xlink="http://www.w3.org/1999/xlink" xmlns:ev="http://www.w3.org/2001/xml-events" style="font:bold normal 12pt Helvetica, Helvetica, sans-serif;;stroke-linejoin:round;stroke-linecap:round">
  <title >nomnoml</title>
  <desc >[&lt;reference&gt; send token amount]-&gt; [&lt;input&gt; Enter amount]
[Enter amount]-&gt; [&lt;choice&gt; is valid token amount]
[is valid token amount]-&gt; yes [save:; i) token amount; ii) transfer usage]
[save:; i) token amount; ii) transfer usage]-&gt; [&lt;reference&gt; send token pin authorization]
[is valid token amount]-&gt; no [&lt;reference&gt; exit invalid input]
</desc>
  <rect x="0" y="0" height="386.5" width="405.5" style="stroke:none; fill:transparent;"></rect>
  <path d="M227.5 44.5 L227.5 64.5 L227.5 84.5 L227.5 84.5 " style="stroke:#33322E;fill:none;stroke-dasharray:none;stroke-width:3;"></path>
  <path d="M222.2 71.2 L227.5 77.8 L232.8 71.2 L227.5 84.5 Z" style="stroke:#33322E;fill:#33322E;stroke-dasharray:none;stroke-width:3;"></path>
  <path d="M227.5 115.5 L227.5 135.5 L227.5 155.5 L227.5 155.5 " style="stroke:#33322E;fill:none;stroke-dasharray:none;stroke-width:3;"></path>
  <path d="M222.2 142.2 L227.5 148.8 L232.8 142.2 L227.5 155.5 Z" style="stroke:#33322E;fill:#33322E;stroke-dasharray:none;stroke-width:3;"></path>
  <text x="98" y="234" style="fill: #33322E;font:normal  12pt Helvetica, Helvetica, sans-serif;">yes</text>
  <path d="M177.2 202 L134 222 L134 242 L134 242 " style="stroke:#33322E;fill:none;stroke-dasharray:none;stroke-width:3;"></path>
  <path d="M128.7 228.7 L134 235.3 L139.3 228.7 L134 242 Z" style="stroke:#33322E;fill:#33322E;stroke-dasharray:none;stroke-width:3;"></path>
  <path d="M134 303 L134 323 L134 343 L134 343 " style="stroke:#33322E;fill:none;stroke-dasharray:none;stroke-width:3;"></path>
  <path d="M128.7 329.7 L134 336.3 L139.3 329.7 L134 343 Z" style="stroke:#33322E;fill:#33322E;stroke-dasharray:none;stroke-width:3;"></path>
  <text x="329" y="249" style="fill: #33322E;font:normal  12pt Helvetica, Helvetica, sans-serif;">no</text>
  <path d="M277.8 202 L321 222 L321 257 L321 257 " style="stroke:#33322E;fill:none;stroke-dasharray:none;stroke-width:3;"></path>
  <path d="M315.7 243.7 L321 250.3 L326.3 243.7 L321 257 Z" style="stroke:#33322E;fill:#33322E;stroke-dasharray:none;stroke-width:3;"></path>
  <rect x="143.5" y="13.5" height="31" width="168" data-name="send token amount" style="stroke:#33322E;fill:#eee8d5;stroke-dasharray:6 6;stroke-width:3;"></rect>
  <text x="227.5" y="35" style="fill: #33322E;font:normal  12pt Helvetica, Helvetica, sans-serif;text-anchor: middle;" data-name="send token amount">send token amount</text>
  <path d="M174.5 84.5 L288.5 84.5 L280.5 115.5 L166.5 115.5 Z" data-name="Enter amount" style="stroke:#33322E;fill:#eee8d5;stroke-dasharray:none;stroke-width:3;"></path>
  <text x="227.5" y="106" style="fill: #33322E;font:normal  12pt Helvetica, Helvetica, sans-serif;text-anchor: middle;" data-name="Enter amount">Enter amount</text>
  <path d="M227.5 155.5 L365.5 178.8 L227.5 202 L89.5 178.8 Z" data-name="is valid token amount" style="stroke:#33322E;fill:#eee8d5;stroke-dasharray:none;stroke-width:3;"></path>
  <text x="227.5" y="184.8" style="fill: #33322E;font:normal  12pt Helvetica, Helvetica, sans-serif;text-anchor: middle;" data-name="is valid token amount">is valid token amount</text>
  <rect x="59.5" y="242.5" height="61" width="150" data-name="save:" style="stroke:#33322E;fill:#eee8d5;stroke-dasharray:none;stroke-width:3;"></rect>
  <text x="134.5" y="264" style="fill: #33322E;font:bold  12pt Helvetica, Helvetica, sans-serif;text-anchor: middle;" data-name="save:">save:</text>
  <text x="134.5" y="279" style="fill: #33322E;font:bold  12pt Helvetica, Helvetica, sans-serif;text-anchor: middle;" data-name="save:">i) token amount</text>
  <text x="134.5" y="294" style="fill: #33322E;font:bold  12pt Helvetica, Helvetica, sans-serif;text-anchor: middle;" data-name="save:">ii) transfer usage</text>
  <rect x="13.5" y="343.5" height="31" width="241" data-name="send token pin authorization" style="stroke:#33322E;fill:#eee8d5;stroke-dasharray:6 6;stroke-width:3;"></rect>
  <text x="134" y="365" style="fill: #33322E;font:normal  12pt Helvetica, Helvetica, sans-serif;text-anchor: middle;" data-name="send token pin authorization">send token pin authorization</text>
  <rect x="249.5" y="257.5" height="31" width="144" data-name="exit invalid input" style="stroke:#33322E;fill:#eee8d5;stroke-dasharray:6 6;stroke-width:3;"></rect>
  <text x="321.5" y="279" style="fill: #33322E;font:normal  12pt Helvetica, Helvetica, sans-serif;text-anchor: middle;" data-name="exit invalid input">exit invalid input</text>
</svg>